<mxfile host="app.diagrams.net" agent="Mozilla/5.0 (Windows NT 10.0; Win64; x64; rv:133.0) Gecko/20100101 Firefox/133.0" version="25.0.1" pages="4">
  <diagram name="Page-1" id="HNdaLB06FwLKPcHaJw4l">
    <mxGraphModel dx="2600" dy="930" grid="1" gridSize="10" guides="1" tooltips="1" connect="1" arrows="1" fold="1" page="1" pageScale="1" pageWidth="850" pageHeight="1100" math="0" shadow="0">
      <root>
        <mxCell id="0" />
        <mxCell id="1" parent="0" />
        <mxCell id="R4eB-m3aGLz5YVXcL1x6-7" value="" style="shape=stencil(rZPhDoIgFIWfhr8NYc3+Nqv3QKVkEjggrbfvKupKw5Vrc2z3HM6H3iuIJrZgFUcEF4geECERxrBC3UxqZiueOS/WzAiWSu4d64wueSNy1zOEKrgRrnXpEeE97GkfmmRaKYAIreyb8+IDjAkFWXz3sP74R19tyNYLiJxWM+IVjGjCWPMaQ2iE7AIUmoAS6hZNUpaVF6NvKp+ngt5ZG/7BGG0hpZ/kwldVrJ3xzBjsq655sOtL/RoAUqggYPwTf0GMoR4S/4FBv2JkUtulVoIe6CbcydAcuthskJ3q73EnPAE=);whiteSpace=wrap;html=1;flipV=1;fontSize=8;" parent="1" vertex="1">
          <mxGeometry x="425" y="500" width="55" height="110" as="geometry" />
        </mxCell>
        <mxCell id="R4eB-m3aGLz5YVXcL1x6-8" value="" style="endArrow=none;html=1;rounded=0;entryX=-0.005;entryY=0.826;entryDx=0;entryDy=0;entryPerimeter=0;" parent="1" edge="1">
          <mxGeometry width="50" height="50" relative="1" as="geometry">
            <mxPoint x="400" y="520" as="sourcePoint" />
            <mxPoint x="424.72499999999997" y="520.14" as="targetPoint" />
          </mxGeometry>
        </mxCell>
        <mxCell id="R4eB-m3aGLz5YVXcL1x6-9" value="" style="endArrow=none;html=1;rounded=0;" parent="1" edge="1">
          <mxGeometry width="50" height="50" relative="1" as="geometry">
            <mxPoint x="400" y="570" as="sourcePoint" />
            <mxPoint x="425" y="570" as="targetPoint" />
          </mxGeometry>
        </mxCell>
        <mxCell id="SqCmMRaEzPAtH-QpOM38-28" value="x" style="edgeLabel;html=1;align=center;verticalAlign=middle;resizable=0;points=[];" vertex="1" connectable="0" parent="R4eB-m3aGLz5YVXcL1x6-9">
          <mxGeometry x="-0.6014" y="1" relative="1" as="geometry">
            <mxPoint x="-5" y="-6" as="offset" />
          </mxGeometry>
        </mxCell>
        <mxCell id="R4eB-m3aGLz5YVXcL1x6-10" value="" style="endArrow=none;html=1;rounded=0;entryX=0.003;entryY=0.64;entryDx=0;entryDy=0;entryPerimeter=0;" parent="1" target="R4eB-m3aGLz5YVXcL1x6-7" edge="1">
          <mxGeometry width="50" height="50" relative="1" as="geometry">
            <mxPoint x="350" y="540" as="sourcePoint" />
            <mxPoint x="360" y="560" as="targetPoint" />
          </mxGeometry>
        </mxCell>
        <mxCell id="R4eB-m3aGLz5YVXcL1x6-37" value="i_add" style="edgeLabel;html=1;align=center;verticalAlign=middle;resizable=0;points=[];" parent="R4eB-m3aGLz5YVXcL1x6-10" vertex="1" connectable="0">
          <mxGeometry x="-0.4812" relative="1" as="geometry">
            <mxPoint x="-19" y="-10" as="offset" />
          </mxGeometry>
        </mxCell>
        <mxCell id="R4eB-m3aGLz5YVXcL1x6-11" value="" style="endArrow=none;html=1;rounded=0;" parent="1" edge="1">
          <mxGeometry width="50" height="50" relative="1" as="geometry">
            <mxPoint x="400" y="590" as="sourcePoint" />
            <mxPoint x="425" y="590" as="targetPoint" />
          </mxGeometry>
        </mxCell>
        <mxCell id="R4eB-m3aGLz5YVXcL1x6-12" value="" style="endArrow=none;html=1;rounded=0;" parent="1" target="R4eB-m3aGLz5YVXcL1x6-13" edge="1">
          <mxGeometry width="50" height="50" relative="1" as="geometry">
            <mxPoint x="480" y="560" as="sourcePoint" />
            <mxPoint x="530" y="560" as="targetPoint" />
          </mxGeometry>
        </mxCell>
        <mxCell id="R4eB-m3aGLz5YVXcL1x6-76" value="" style="edgeStyle=orthogonalEdgeStyle;rounded=0;orthogonalLoop=1;jettySize=auto;html=1;" parent="1" source="R4eB-m3aGLz5YVXcL1x6-13" edge="1">
          <mxGeometry relative="1" as="geometry">
            <mxPoint x="730" y="560" as="targetPoint" />
          </mxGeometry>
        </mxCell>
        <mxCell id="R4eB-m3aGLz5YVXcL1x6-13" value="reg 5" style="rounded=0;whiteSpace=wrap;html=1;" parent="1" vertex="1">
          <mxGeometry x="530" y="530" width="120" height="60" as="geometry" />
        </mxCell>
        <mxCell id="R4eB-m3aGLz5YVXcL1x6-22" value="" style="endArrow=none;html=1;rounded=0;exitX=0.5;exitY=0;exitDx=0;exitDy=0;" parent="1" source="R4eB-m3aGLz5YVXcL1x6-13" edge="1">
          <mxGeometry width="50" height="50" relative="1" as="geometry">
            <mxPoint x="570" y="510" as="sourcePoint" />
            <mxPoint x="590" y="450" as="targetPoint" />
          </mxGeometry>
        </mxCell>
        <mxCell id="R4eB-m3aGLz5YVXcL1x6-23" value="+" style="shape=stencil(rZTvDoIgFMWfhq8OIZt9bFbvQUrJInBg/96+q5RTzFbU5tzuOd6fXDmCaGZLVnFEcInoChESYwx3qC9ezWzF89qJZ2YE20ruHFsbfeAXUdQPhlAlN6JuXLpGeAnPNBfNcq0UQIRWduD0fIAxoaAXXx0MR8S95vaoXYXI5gtE+jsiGSDiEAT2lhHNQiix9z2ieQhl4UGS1xCagTK1bTTbsvywN/qkinHXpLfThr8wOltI6SL1ZqiKNWEbGU/7qM+8N+3nu/8ESKF6AI/Q/RPfMNI/MLqm8FHmPxOSIYEGIGYBi8iltu8SAfpEKOCMm4pT2zbKY6u6c7EV7g==);whiteSpace=wrap;html=1;rotation=-90;" parent="1" vertex="1">
          <mxGeometry x="600" y="390" width="100" height="60" as="geometry" />
        </mxCell>
        <mxCell id="R4eB-m3aGLz5YVXcL1x6-26" value="" style="endArrow=none;html=1;rounded=0;exitX=0.2;exitY=0;exitDx=0;exitDy=0;exitPerimeter=0;" parent="1" source="R4eB-m3aGLz5YVXcL1x6-23" edge="1">
          <mxGeometry width="50" height="50" relative="1" as="geometry">
            <mxPoint x="580" y="240" as="sourcePoint" />
            <mxPoint x="590" y="450" as="targetPoint" />
          </mxGeometry>
        </mxCell>
        <mxCell id="R4eB-m3aGLz5YVXcL1x6-27" value="" style="endArrow=none;html=1;rounded=0;exitX=0.8;exitY=0;exitDx=0;exitDy=0;exitPerimeter=0;" parent="1" source="R4eB-m3aGLz5YVXcL1x6-23" edge="1">
          <mxGeometry width="50" height="50" relative="1" as="geometry">
            <mxPoint x="630" y="320" as="sourcePoint" />
            <mxPoint x="590" y="390" as="targetPoint" />
          </mxGeometry>
        </mxCell>
        <mxCell id="R4eB-m3aGLz5YVXcL1x6-28" value="2" style="edgeLabel;html=1;align=center;verticalAlign=middle;resizable=0;points=[];" parent="R4eB-m3aGLz5YVXcL1x6-27" vertex="1" connectable="0">
          <mxGeometry x="0.5467" y="1" relative="1" as="geometry">
            <mxPoint x="-7" y="-11" as="offset" />
          </mxGeometry>
        </mxCell>
        <mxCell id="R4eB-m3aGLz5YVXcL1x6-33" value="" style="endArrow=none;html=1;rounded=0;entryX=0.5;entryY=1;entryDx=0;entryDy=0;entryPerimeter=0;" parent="1" target="R4eB-m3aGLz5YVXcL1x6-23" edge="1">
          <mxGeometry width="50" height="50" relative="1" as="geometry">
            <mxPoint x="750" y="420" as="sourcePoint" />
            <mxPoint x="680" y="279.57" as="targetPoint" />
            <Array as="points" />
          </mxGeometry>
        </mxCell>
        <mxCell id="R4eB-m3aGLz5YVXcL1x6-34" value="" style="endArrow=none;html=1;rounded=0;" parent="1" edge="1">
          <mxGeometry width="50" height="50" relative="1" as="geometry">
            <mxPoint x="750" y="420" as="sourcePoint" />
            <mxPoint x="750" y="320" as="targetPoint" />
            <Array as="points" />
          </mxGeometry>
        </mxCell>
        <mxCell id="R4eB-m3aGLz5YVXcL1x6-35" value="" style="endArrow=none;html=1;rounded=0;" parent="1" edge="1">
          <mxGeometry width="50" height="50" relative="1" as="geometry">
            <mxPoint x="400" y="520" as="sourcePoint" />
            <mxPoint x="400" y="320" as="targetPoint" />
            <Array as="points" />
          </mxGeometry>
        </mxCell>
        <mxCell id="R4eB-m3aGLz5YVXcL1x6-36" value="" style="endArrow=none;html=1;rounded=0;" parent="1" edge="1">
          <mxGeometry width="50" height="50" relative="1" as="geometry">
            <mxPoint x="400" y="320" as="sourcePoint" />
            <mxPoint x="750" y="320" as="targetPoint" />
            <Array as="points" />
          </mxGeometry>
        </mxCell>
        <mxCell id="R4eB-m3aGLz5YVXcL1x6-38" value="&lt;font&gt;00&lt;/font&gt;" style="text;html=1;align=center;verticalAlign=middle;resizable=0;points=[];autosize=1;strokeColor=none;fillColor=none;fontSize=12;" parent="1" vertex="1">
          <mxGeometry x="413" y="503" width="40" height="30" as="geometry" />
        </mxCell>
        <mxCell id="R4eB-m3aGLz5YVXcL1x6-39" value="&lt;font&gt;01&lt;/font&gt;" style="text;html=1;align=center;verticalAlign=middle;resizable=0;points=[];autosize=1;strokeColor=none;fillColor=none;fontSize=12;" parent="1" vertex="1">
          <mxGeometry x="413" y="525" width="40" height="30" as="geometry" />
        </mxCell>
        <mxCell id="R4eB-m3aGLz5YVXcL1x6-40" value="&lt;font&gt;10&lt;/font&gt;" style="text;html=1;align=center;verticalAlign=middle;resizable=0;points=[];autosize=1;strokeColor=none;fillColor=none;fontSize=12;" parent="1" vertex="1">
          <mxGeometry x="412" y="555" width="40" height="30" as="geometry" />
        </mxCell>
        <mxCell id="R4eB-m3aGLz5YVXcL1x6-41" value="&lt;font&gt;11&lt;/font&gt;" style="text;html=1;align=center;verticalAlign=middle;resizable=0;points=[];autosize=1;strokeColor=none;fillColor=none;fontSize=12;" parent="1" vertex="1">
          <mxGeometry x="412" y="575" width="40" height="30" as="geometry" />
        </mxCell>
        <mxCell id="R4eB-m3aGLz5YVXcL1x6-43" value="" style="endArrow=none;html=1;rounded=0;exitX=0.2;exitY=0;exitDx=0;exitDy=0;exitPerimeter=0;" parent="1" source="R4eB-m3aGLz5YVXcL1x6-46" edge="1">
          <mxGeometry width="50" height="50" relative="1" as="geometry">
            <mxPoint x="580" y="512" as="sourcePoint" />
            <mxPoint x="590" y="722" as="targetPoint" />
          </mxGeometry>
        </mxCell>
        <mxCell id="R4eB-m3aGLz5YVXcL1x6-51" value="1" style="edgeLabel;html=1;align=center;verticalAlign=middle;resizable=0;points=[];" parent="R4eB-m3aGLz5YVXcL1x6-43" vertex="1" connectable="0">
          <mxGeometry x="0.2737" y="-1" relative="1" as="geometry">
            <mxPoint x="-11" y="-9" as="offset" />
          </mxGeometry>
        </mxCell>
        <mxCell id="R4eB-m3aGLz5YVXcL1x6-44" value="" style="endArrow=none;html=1;rounded=0;exitX=0.8;exitY=0;exitDx=0;exitDy=0;exitPerimeter=0;" parent="1" edge="1">
          <mxGeometry width="50" height="50" relative="1" as="geometry">
            <mxPoint x="620" y="660" as="sourcePoint" />
            <mxPoint x="590" y="660" as="targetPoint" />
          </mxGeometry>
        </mxCell>
        <mxCell id="R4eB-m3aGLz5YVXcL1x6-46" value="I" style="shape=stencil(rZTvDoIgFMWfhq8OIZt9bFbvQUrJInBg/96+q5RTzFbU5tzuOd6fXDmCaGZLVnFEcInoChESYwx3qC9ezWzF89qJZ2YE20ruHFsbfeAXUdQPhlAlN6JuXLpGeAnPNBfNcq0UQIRWduD0fIAxoaAXXx0MR8S95vaoXYXI5gtE+jsiGSDiEAT2lhHNQiix9z2ieQhl4UGS1xCagTK1bTTbsvywN/qkinHXpLfThr8wOltI6SL1ZqiKNWEbGU/7qM+8N+3nu/8ESKF6AI/Q/RPfMNI/MLqm8FHmPxOSIYEGIGYBi8iltu8SAfpEKOCMm4pT2zbKY6u6c7EV7g==);whiteSpace=wrap;html=1;rotation=-90;" parent="1" vertex="1">
          <mxGeometry x="600" y="662" width="100" height="60" as="geometry" />
        </mxCell>
        <mxCell id="R4eB-m3aGLz5YVXcL1x6-47" value="" style="endArrow=none;html=1;rounded=0;" parent="1" edge="1">
          <mxGeometry width="50" height="50" relative="1" as="geometry">
            <mxPoint x="400" y="792" as="sourcePoint" />
            <mxPoint x="750" y="792" as="targetPoint" />
            <Array as="points" />
          </mxGeometry>
        </mxCell>
        <mxCell id="R4eB-m3aGLz5YVXcL1x6-48" value="" style="endArrow=none;html=1;rounded=0;" parent="1" edge="1">
          <mxGeometry width="50" height="50" relative="1" as="geometry">
            <mxPoint x="750" y="792" as="sourcePoint" />
            <mxPoint x="750" y="692" as="targetPoint" />
            <Array as="points" />
          </mxGeometry>
        </mxCell>
        <mxCell id="R4eB-m3aGLz5YVXcL1x6-49" value="" style="endArrow=none;html=1;rounded=0;entryX=0.5;entryY=1;entryDx=0;entryDy=0;entryPerimeter=0;" parent="1" target="R4eB-m3aGLz5YVXcL1x6-46" edge="1">
          <mxGeometry width="50" height="50" relative="1" as="geometry">
            <mxPoint x="750" y="692" as="sourcePoint" />
            <mxPoint x="680" y="551.5699999999999" as="targetPoint" />
            <Array as="points" />
          </mxGeometry>
        </mxCell>
        <mxCell id="R4eB-m3aGLz5YVXcL1x6-50" value="" style="endArrow=none;html=1;rounded=0;" parent="1" edge="1">
          <mxGeometry width="50" height="50" relative="1" as="geometry">
            <mxPoint x="400" y="792" as="sourcePoint" />
            <mxPoint x="400" y="590" as="targetPoint" />
            <Array as="points" />
          </mxGeometry>
        </mxCell>
        <mxCell id="R4eB-m3aGLz5YVXcL1x6-52" value="" style="endArrow=none;html=1;rounded=0;entryX=0.5;entryY=1;entryDx=0;entryDy=0;" parent="1" edge="1">
          <mxGeometry width="50" height="50" relative="1" as="geometry">
            <mxPoint x="590" y="660" as="sourcePoint" />
            <mxPoint x="590" y="590" as="targetPoint" />
            <Array as="points" />
          </mxGeometry>
        </mxCell>
        <mxCell id="R4eB-m3aGLz5YVXcL1x6-54" value="" style="shape=stencil(rZPhDoIgFIWfhr8NYc3+Nqv3QKVkEjggrbfvKupKw5Vrc2z3HM6H3iuIJrZgFUcEF4geECERxrBC3UxqZiueOS/WzAiWSu4d64wueSNy1zOEKrgRrnXpEeE97GkfmmRaKYAIreyb8+IDjAkFWXz3sP74R19tyNYLiJxWM+IVjGjCWPMaQ2iE7AIUmoAS6hZNUpaVF6NvKp+ngt5ZG/7BGG0hpZ/kwldVrJ3xzBjsq655sOtL/RoAUqggYPwTf0GMoR4S/4FBv2JkUtulVoIe6CbcydAcuthskJ3q73EnPAE=);whiteSpace=wrap;html=1;flipV=1;fontSize=8;" parent="1" vertex="1">
          <mxGeometry x="435" y="860" width="55" height="110" as="geometry" />
        </mxCell>
        <mxCell id="R4eB-m3aGLz5YVXcL1x6-56" value="" style="endArrow=none;html=1;rounded=0;" parent="1" edge="1">
          <mxGeometry width="50" height="50" relative="1" as="geometry">
            <mxPoint x="410" y="930" as="sourcePoint" />
            <mxPoint x="435" y="930" as="targetPoint" />
          </mxGeometry>
        </mxCell>
        <mxCell id="R4eB-m3aGLz5YVXcL1x6-57" value="" style="endArrow=none;html=1;rounded=0;entryX=0.003;entryY=0.64;entryDx=0;entryDy=0;entryPerimeter=0;" parent="1" target="R4eB-m3aGLz5YVXcL1x6-54" edge="1">
          <mxGeometry width="50" height="50" relative="1" as="geometry">
            <mxPoint x="360" y="900" as="sourcePoint" />
            <mxPoint x="370" y="920" as="targetPoint" />
          </mxGeometry>
        </mxCell>
        <mxCell id="R4eB-m3aGLz5YVXcL1x6-58" value="i_k" style="edgeLabel;html=1;align=center;verticalAlign=middle;resizable=0;points=[];" parent="R4eB-m3aGLz5YVXcL1x6-57" vertex="1" connectable="0">
          <mxGeometry x="-0.4812" relative="1" as="geometry">
            <mxPoint x="-19" y="-10" as="offset" />
          </mxGeometry>
        </mxCell>
        <mxCell id="R4eB-m3aGLz5YVXcL1x6-60" value="" style="endArrow=none;html=1;rounded=0;" parent="1" target="R4eB-m3aGLz5YVXcL1x6-61" edge="1">
          <mxGeometry width="50" height="50" relative="1" as="geometry">
            <mxPoint x="490" y="920" as="sourcePoint" />
            <mxPoint x="540" y="920" as="targetPoint" />
          </mxGeometry>
        </mxCell>
        <mxCell id="R4eB-m3aGLz5YVXcL1x6-80" value="" style="edgeStyle=orthogonalEdgeStyle;rounded=0;orthogonalLoop=1;jettySize=auto;html=1;" parent="1" source="R4eB-m3aGLz5YVXcL1x6-61" target="R4eB-m3aGLz5YVXcL1x6-79" edge="1">
          <mxGeometry relative="1" as="geometry" />
        </mxCell>
        <mxCell id="R4eB-m3aGLz5YVXcL1x6-61" value="reg 4" style="rounded=0;whiteSpace=wrap;html=1;" parent="1" vertex="1">
          <mxGeometry x="540" y="890" width="120" height="60" as="geometry" />
        </mxCell>
        <mxCell id="R4eB-m3aGLz5YVXcL1x6-63" value="0" style="text;html=1;align=center;verticalAlign=middle;resizable=0;points=[];autosize=1;strokeColor=none;fillColor=none;" parent="1" vertex="1">
          <mxGeometry x="426" y="882" width="30" height="30" as="geometry" />
        </mxCell>
        <mxCell id="R4eB-m3aGLz5YVXcL1x6-64" value="1" style="text;html=1;align=center;verticalAlign=middle;resizable=0;points=[];autosize=1;strokeColor=none;fillColor=none;" parent="1" vertex="1">
          <mxGeometry x="425" y="914" width="30" height="30" as="geometry" />
        </mxCell>
        <mxCell id="R4eB-m3aGLz5YVXcL1x6-66" value="" style="endArrow=none;html=1;rounded=0;exitX=0.2;exitY=0;exitDx=0;exitDy=0;exitPerimeter=0;" parent="1" source="R4eB-m3aGLz5YVXcL1x6-69" edge="1">
          <mxGeometry width="50" height="50" relative="1" as="geometry">
            <mxPoint x="590" y="872" as="sourcePoint" />
            <mxPoint x="600" y="1082" as="targetPoint" />
          </mxGeometry>
        </mxCell>
        <mxCell id="R4eB-m3aGLz5YVXcL1x6-67" value="1" style="edgeLabel;html=1;align=center;verticalAlign=middle;resizable=0;points=[];" parent="R4eB-m3aGLz5YVXcL1x6-66" vertex="1" connectable="0">
          <mxGeometry x="0.2737" y="-1" relative="1" as="geometry">
            <mxPoint x="-11" y="-9" as="offset" />
          </mxGeometry>
        </mxCell>
        <mxCell id="R4eB-m3aGLz5YVXcL1x6-68" value="" style="endArrow=none;html=1;rounded=0;exitX=0.8;exitY=0;exitDx=0;exitDy=0;exitPerimeter=0;" parent="1" edge="1">
          <mxGeometry width="50" height="50" relative="1" as="geometry">
            <mxPoint x="630" y="1020" as="sourcePoint" />
            <mxPoint x="600" y="1020" as="targetPoint" />
          </mxGeometry>
        </mxCell>
        <mxCell id="R4eB-m3aGLz5YVXcL1x6-69" value="I" style="shape=stencil(rZTvDoIgFMWfhq8OIZt9bFbvQUrJInBg/96+q5RTzFbU5tzuOd6fXDmCaGZLVnFEcInoChESYwx3qC9ezWzF89qJZ2YE20ruHFsbfeAXUdQPhlAlN6JuXLpGeAnPNBfNcq0UQIRWduD0fIAxoaAXXx0MR8S95vaoXYXI5gtE+jsiGSDiEAT2lhHNQiix9z2ieQhl4UGS1xCagTK1bTTbsvywN/qkinHXpLfThr8wOltI6SL1ZqiKNWEbGU/7qM+8N+3nu/8ESKF6AI/Q/RPfMNI/MLqm8FHmPxOSIYEGIGYBi8iltu8SAfpEKOCMm4pT2zbKY6u6c7EV7g==);whiteSpace=wrap;html=1;rotation=-90;" parent="1" vertex="1">
          <mxGeometry x="610" y="1022" width="100" height="60" as="geometry" />
        </mxCell>
        <mxCell id="R4eB-m3aGLz5YVXcL1x6-70" value="" style="endArrow=none;html=1;rounded=0;" parent="1" edge="1">
          <mxGeometry width="50" height="50" relative="1" as="geometry">
            <mxPoint x="410" y="1152" as="sourcePoint" />
            <mxPoint x="760" y="1152" as="targetPoint" />
            <Array as="points" />
          </mxGeometry>
        </mxCell>
        <mxCell id="R4eB-m3aGLz5YVXcL1x6-71" value="" style="endArrow=none;html=1;rounded=0;" parent="1" edge="1">
          <mxGeometry width="50" height="50" relative="1" as="geometry">
            <mxPoint x="760" y="1152" as="sourcePoint" />
            <mxPoint x="760" y="1052" as="targetPoint" />
            <Array as="points" />
          </mxGeometry>
        </mxCell>
        <mxCell id="R4eB-m3aGLz5YVXcL1x6-72" value="" style="endArrow=none;html=1;rounded=0;entryX=0.5;entryY=1;entryDx=0;entryDy=0;entryPerimeter=0;" parent="1" target="R4eB-m3aGLz5YVXcL1x6-69" edge="1">
          <mxGeometry width="50" height="50" relative="1" as="geometry">
            <mxPoint x="760" y="1052" as="sourcePoint" />
            <mxPoint x="690" y="911.5699999999999" as="targetPoint" />
            <Array as="points" />
          </mxGeometry>
        </mxCell>
        <mxCell id="R4eB-m3aGLz5YVXcL1x6-73" value="" style="endArrow=none;html=1;rounded=0;" parent="1" edge="1">
          <mxGeometry width="50" height="50" relative="1" as="geometry">
            <mxPoint x="410" y="1152" as="sourcePoint" />
            <mxPoint x="410" y="930" as="targetPoint" />
            <Array as="points" />
          </mxGeometry>
        </mxCell>
        <mxCell id="R4eB-m3aGLz5YVXcL1x6-74" value="" style="endArrow=none;html=1;rounded=0;entryX=0.5;entryY=1;entryDx=0;entryDy=0;" parent="1" edge="1">
          <mxGeometry width="50" height="50" relative="1" as="geometry">
            <mxPoint x="600" y="1020" as="sourcePoint" />
            <mxPoint x="600" y="950" as="targetPoint" />
            <Array as="points" />
          </mxGeometry>
        </mxCell>
        <mxCell id="R4eB-m3aGLz5YVXcL1x6-77" value="o_mem_addr" style="text;html=1;align=center;verticalAlign=middle;resizable=0;points=[];autosize=1;strokeColor=none;fillColor=none;" parent="1" vertex="1">
          <mxGeometry x="730" y="545" width="90" height="30" as="geometry" />
        </mxCell>
        <mxCell id="R4eB-m3aGLz5YVXcL1x6-79" value="= 0 ?" style="rounded=0;whiteSpace=wrap;html=1;" parent="1" vertex="1">
          <mxGeometry x="740" y="890" width="120" height="60" as="geometry" />
        </mxCell>
        <mxCell id="R4eB-m3aGLz5YVXcL1x6-82" value="" style="endArrow=classic;html=1;rounded=0;entryX=0.501;entryY=0.137;entryDx=0;entryDy=0;entryPerimeter=0;strokeColor=#FF0000;" parent="1" target="R4eB-m3aGLz5YVXcL1x6-54" edge="1">
          <mxGeometry width="50" height="50" relative="1" as="geometry">
            <mxPoint x="463" y="1000" as="sourcePoint" />
            <mxPoint x="462.6550000000002" y="957.79" as="targetPoint" />
          </mxGeometry>
        </mxCell>
        <mxCell id="R4eB-m3aGLz5YVXcL1x6-83" value="k_sel" style="edgeLabel;html=1;align=center;verticalAlign=middle;resizable=0;points=[];fontColor=#FF0000;" parent="R4eB-m3aGLz5YVXcL1x6-82" vertex="1" connectable="0">
          <mxGeometry x="-0.2046" relative="1" as="geometry">
            <mxPoint x="17" y="8" as="offset" />
          </mxGeometry>
        </mxCell>
        <mxCell id="R4eB-m3aGLz5YVXcL1x6-84" value="" style="endArrow=classic;html=1;rounded=0;entryX=1;entryY=1;entryDx=0;entryDy=0;strokeColor=#FF0000;" parent="1" target="R4eB-m3aGLz5YVXcL1x6-61" edge="1">
          <mxGeometry width="50" height="50" relative="1" as="geometry">
            <mxPoint x="690" y="980" as="sourcePoint" />
            <mxPoint x="670" y="944" as="targetPoint" />
          </mxGeometry>
        </mxCell>
        <mxCell id="R4eB-m3aGLz5YVXcL1x6-85" value="r4_load" style="edgeLabel;html=1;align=center;verticalAlign=middle;resizable=0;points=[];fontColor=#FF0000;" parent="R4eB-m3aGLz5YVXcL1x6-84" vertex="1" connectable="0">
          <mxGeometry x="-0.2046" relative="1" as="geometry">
            <mxPoint x="17" y="8" as="offset" />
          </mxGeometry>
        </mxCell>
        <mxCell id="R4eB-m3aGLz5YVXcL1x6-86" value="" style="endArrow=classic;html=1;rounded=0;strokeColor=#FF0000;exitX=1;exitY=0.5;exitDx=0;exitDy=0;" parent="1" source="R4eB-m3aGLz5YVXcL1x6-79" edge="1">
          <mxGeometry width="50" height="50" relative="1" as="geometry">
            <mxPoint x="920" y="930" as="sourcePoint" />
            <mxPoint x="920" y="920" as="targetPoint" />
          </mxGeometry>
        </mxCell>
        <mxCell id="R4eB-m3aGLz5YVXcL1x6-87" value="k_is0" style="edgeLabel;html=1;align=center;verticalAlign=middle;resizable=0;points=[];fontColor=#FF0000;" parent="R4eB-m3aGLz5YVXcL1x6-86" vertex="1" connectable="0">
          <mxGeometry x="-0.2046" relative="1" as="geometry">
            <mxPoint x="6" y="9" as="offset" />
          </mxGeometry>
        </mxCell>
        <mxCell id="R4eB-m3aGLz5YVXcL1x6-88" value="" style="endArrow=classic;html=1;rounded=0;entryX=0.54;entryY=0.144;entryDx=0;entryDy=0;entryPerimeter=0;strokeColor=#FF0000;" parent="1" target="R4eB-m3aGLz5YVXcL1x6-7" edge="1">
          <mxGeometry width="50" height="50" relative="1" as="geometry">
            <mxPoint x="455" y="635" as="sourcePoint" />
            <mxPoint x="455" y="590" as="targetPoint" />
          </mxGeometry>
        </mxCell>
        <mxCell id="R4eB-m3aGLz5YVXcL1x6-89" value="add_sel" style="edgeLabel;html=1;align=center;verticalAlign=middle;resizable=0;points=[];fontColor=#FF0000;" parent="R4eB-m3aGLz5YVXcL1x6-88" vertex="1" connectable="0">
          <mxGeometry x="-0.2046" relative="1" as="geometry">
            <mxPoint x="25" y="8" as="offset" />
          </mxGeometry>
        </mxCell>
        <mxCell id="R4eB-m3aGLz5YVXcL1x6-90" value="" style="endArrow=classic;html=1;rounded=0;entryX=0;entryY=0;entryDx=0;entryDy=0;strokeColor=#FF0000;" parent="1" target="R4eB-m3aGLz5YVXcL1x6-13" edge="1">
          <mxGeometry width="50" height="50" relative="1" as="geometry">
            <mxPoint x="510" y="501" as="sourcePoint" />
            <mxPoint x="510" y="460" as="targetPoint" />
          </mxGeometry>
        </mxCell>
        <mxCell id="R4eB-m3aGLz5YVXcL1x6-91" value="r5_load" style="edgeLabel;html=1;align=center;verticalAlign=middle;resizable=0;points=[];fontColor=#FF0000;" parent="R4eB-m3aGLz5YVXcL1x6-90" vertex="1" connectable="0">
          <mxGeometry x="-0.2046" relative="1" as="geometry">
            <mxPoint x="22" y="-2" as="offset" />
          </mxGeometry>
        </mxCell>
        <mxCell id="R4eB-m3aGLz5YVXcL1x6-96" value="reg 1" style="whiteSpace=wrap;html=1;" parent="1" vertex="1">
          <mxGeometry x="-760" y="500" width="120" height="60" as="geometry" />
        </mxCell>
        <mxCell id="R4eB-m3aGLz5YVXcL1x6-102" value="= 0 ?" style="rounded=0;whiteSpace=wrap;html=1;" parent="1" vertex="1">
          <mxGeometry x="-550" y="500" width="120" height="60" as="geometry" />
        </mxCell>
        <mxCell id="R4eB-m3aGLz5YVXcL1x6-103" value="" style="endArrow=classic;html=1;rounded=0;strokeColor=#FF0000;exitX=1;exitY=0.5;exitDx=0;exitDy=0;" parent="1" source="R4eB-m3aGLz5YVXcL1x6-102" edge="1">
          <mxGeometry width="50" height="50" relative="1" as="geometry">
            <mxPoint x="-370" y="540" as="sourcePoint" />
            <mxPoint x="-370" y="530" as="targetPoint" />
          </mxGeometry>
        </mxCell>
        <mxCell id="R4eB-m3aGLz5YVXcL1x6-104" value="r1_is0" style="edgeLabel;html=1;align=center;verticalAlign=middle;resizable=0;points=[];fontColor=#FF0000;" parent="R4eB-m3aGLz5YVXcL1x6-103" vertex="1" connectable="0">
          <mxGeometry x="-0.2046" relative="1" as="geometry">
            <mxPoint x="6" y="9" as="offset" />
          </mxGeometry>
        </mxCell>
        <mxCell id="R4eB-m3aGLz5YVXcL1x6-105" value="" style="edgeStyle=orthogonalEdgeStyle;rounded=0;orthogonalLoop=1;jettySize=auto;html=1;exitX=1;exitY=0.5;exitDx=0;exitDy=0;" parent="1" source="R4eB-m3aGLz5YVXcL1x6-96" target="R4eB-m3aGLz5YVXcL1x6-102" edge="1">
          <mxGeometry relative="1" as="geometry">
            <mxPoint x="-630" y="530" as="sourcePoint" />
          </mxGeometry>
        </mxCell>
        <mxCell id="R4eB-m3aGLz5YVXcL1x6-106" value="reg 2" style="whiteSpace=wrap;html=1;" parent="1" vertex="1">
          <mxGeometry x="-760" y="690" width="120" height="60" as="geometry" />
        </mxCell>
        <mxCell id="R4eB-m3aGLz5YVXcL1x6-107" value="= 0 ?" style="rounded=0;whiteSpace=wrap;html=1;" parent="1" vertex="1">
          <mxGeometry x="-550" y="690" width="120" height="60" as="geometry" />
        </mxCell>
        <mxCell id="R4eB-m3aGLz5YVXcL1x6-108" value="" style="endArrow=classic;html=1;rounded=0;strokeColor=#FF0000;exitX=1;exitY=0.5;exitDx=0;exitDy=0;" parent="1" edge="1">
          <mxGeometry width="50" height="50" relative="1" as="geometry">
            <mxPoint x="-430.0000000000002" y="720" as="sourcePoint" />
            <mxPoint x="-370" y="720" as="targetPoint" />
          </mxGeometry>
        </mxCell>
        <mxCell id="R4eB-m3aGLz5YVXcL1x6-109" value="r2_is0" style="edgeLabel;html=1;align=center;verticalAlign=middle;resizable=0;points=[];fontColor=#FF0000;" parent="R4eB-m3aGLz5YVXcL1x6-108" vertex="1" connectable="0">
          <mxGeometry x="-0.2046" relative="1" as="geometry">
            <mxPoint x="6" y="9" as="offset" />
          </mxGeometry>
        </mxCell>
        <mxCell id="R4eB-m3aGLz5YVXcL1x6-110" value="" style="edgeStyle=orthogonalEdgeStyle;rounded=0;orthogonalLoop=1;jettySize=auto;html=1;exitX=1;exitY=0.5;exitDx=0;exitDy=0;" parent="1" source="R4eB-m3aGLz5YVXcL1x6-106" target="R4eB-m3aGLz5YVXcL1x6-107" edge="1">
          <mxGeometry relative="1" as="geometry">
            <mxPoint x="-630" y="720" as="sourcePoint" />
          </mxGeometry>
        </mxCell>
        <mxCell id="R4eB-m3aGLz5YVXcL1x6-111" value="" style="endArrow=classic;html=1;rounded=0;exitX=0.5;exitY=1;exitDx=0;exitDy=0;entryX=0.5;entryY=0;entryDx=0;entryDy=0;" parent="1" source="R4eB-m3aGLz5YVXcL1x6-96" target="R4eB-m3aGLz5YVXcL1x6-106" edge="1">
          <mxGeometry width="50" height="50" relative="1" as="geometry">
            <mxPoint x="-560" y="640" as="sourcePoint" />
            <mxPoint x="-510" y="590" as="targetPoint" />
          </mxGeometry>
        </mxCell>
        <mxCell id="R4eB-m3aGLz5YVXcL1x6-112" value="" style="shape=stencil(rZPhDoIgFIWfhr8NYc3+Nqv3QKVkEjggrbfvKupKw5Vrc2z3HM6H3iuIJrZgFUcEF4geECERxrBC3UxqZiueOS/WzAiWSu4d64wueSNy1zOEKrgRrnXpEeE97GkfmmRaKYAIreyb8+IDjAkFWXz3sP74R19tyNYLiJxWM+IVjGjCWPMaQ2iE7AIUmoAS6hZNUpaVF6NvKp+ngt5ZG/7BGG0hpZ/kwldVrJ3xzBjsq655sOtL/RoAUqggYPwTf0GMoR4S/4FBv2JkUtulVoIe6CbcydAcuthskJ3q73EnPAE=);whiteSpace=wrap;html=1;flipV=1;fontSize=8;rotation=90;" parent="1" vertex="1">
          <mxGeometry x="-615" y="912" width="55" height="110" as="geometry" />
        </mxCell>
        <mxCell id="R4eB-m3aGLz5YVXcL1x6-114" value="" style="endArrow=none;html=1;rounded=0;entryX=0;entryY=0.75;entryDx=0;entryDy=0;entryPerimeter=0;exitX=0;exitY=0.5;exitDx=0;exitDy=0;" parent="1" target="R4eB-m3aGLz5YVXcL1x6-112" edge="1" source="SqCmMRaEzPAtH-QpOM38-3">
          <mxGeometry width="50" height="50" relative="1" as="geometry">
            <mxPoint x="-250" y="902" as="sourcePoint" />
            <mxPoint x="-480" y="870" as="targetPoint" />
            <Array as="points">
              <mxPoint x="-560" y="902" />
            </Array>
          </mxGeometry>
        </mxCell>
        <mxCell id="R4eB-m3aGLz5YVXcL1x6-116" value="0" style="text;html=1;align=center;verticalAlign=middle;resizable=0;points=[];autosize=1;strokeColor=none;fillColor=none;" parent="1" vertex="1">
          <mxGeometry x="-625" y="936" width="30" height="30" as="geometry" />
        </mxCell>
        <mxCell id="R4eB-m3aGLz5YVXcL1x6-117" value="1" style="text;html=1;align=center;verticalAlign=middle;resizable=0;points=[];autosize=1;strokeColor=none;fillColor=none;" parent="1" vertex="1">
          <mxGeometry x="-579" y="936" width="30" height="30" as="geometry" />
        </mxCell>
        <mxCell id="R4eB-m3aGLz5YVXcL1x6-119" value="" style="endArrow=none;html=1;rounded=0;entryX=0.5;entryY=1;entryDx=0;entryDy=0;exitX=0.004;exitY=0.297;exitDx=0;exitDy=0;exitPerimeter=0;" parent="1" target="R4eB-m3aGLz5YVXcL1x6-106" edge="1" source="R4eB-m3aGLz5YVXcL1x6-112">
          <mxGeometry width="50" height="50" relative="1" as="geometry">
            <mxPoint x="-600" y="920" as="sourcePoint" />
            <mxPoint x="-470" y="912" as="targetPoint" />
            <Array as="points">
              <mxPoint x="-610" y="900" />
              <mxPoint x="-700" y="900" />
            </Array>
          </mxGeometry>
        </mxCell>
        <mxCell id="SqCmMRaEzPAtH-QpOM38-1" value="" style="endArrow=classic;html=1;rounded=0;entryX=0;entryY=0.5;entryDx=0;entryDy=0;" edge="1" parent="1" target="R4eB-m3aGLz5YVXcL1x6-96">
          <mxGeometry width="50" height="50" relative="1" as="geometry">
            <mxPoint x="-820" y="530" as="sourcePoint" />
            <mxPoint x="-760" y="525" as="targetPoint" />
          </mxGeometry>
        </mxCell>
        <mxCell id="SqCmMRaEzPAtH-QpOM38-2" value="i_mem_data" style="edgeLabel;html=1;align=center;verticalAlign=middle;resizable=0;points=[];" vertex="1" connectable="0" parent="SqCmMRaEzPAtH-QpOM38-1">
          <mxGeometry x="-0.5316" y="1" relative="1" as="geometry">
            <mxPoint x="-14" y="-14" as="offset" />
          </mxGeometry>
        </mxCell>
        <mxCell id="SqCmMRaEzPAtH-QpOM38-3" value="reg 3" style="rounded=0;whiteSpace=wrap;html=1;" vertex="1" parent="1">
          <mxGeometry x="-250" y="872" width="120" height="60" as="geometry" />
        </mxCell>
        <mxCell id="SqCmMRaEzPAtH-QpOM38-4" value="" style="endArrow=classic;html=1;rounded=0;exitX=0.5;exitY=1;exitDx=0;exitDy=0;" edge="1" parent="1" source="SqCmMRaEzPAtH-QpOM38-3">
          <mxGeometry width="50" height="50" relative="1" as="geometry">
            <mxPoint x="-240" y="930" as="sourcePoint" />
            <mxPoint x="-250" y="1000" as="targetPoint" />
            <Array as="points">
              <mxPoint x="-190" y="1000" />
            </Array>
          </mxGeometry>
        </mxCell>
        <mxCell id="SqCmMRaEzPAtH-QpOM38-5" value="= 0?" style="rounded=0;whiteSpace=wrap;html=1;" vertex="1" parent="1">
          <mxGeometry x="-370" y="970" width="120" height="60" as="geometry" />
        </mxCell>
        <mxCell id="SqCmMRaEzPAtH-QpOM38-6" value="" style="endArrow=classic;html=1;rounded=0;entryX=0.002;entryY=0.153;entryDx=0;entryDy=0;strokeColor=#FF0000;entryPerimeter=0;" edge="1" parent="1" target="SqCmMRaEzPAtH-QpOM38-3">
          <mxGeometry width="50" height="50" relative="1" as="geometry">
            <mxPoint x="-295" y="860" as="sourcePoint" />
            <mxPoint x="-325" y="830" as="targetPoint" />
          </mxGeometry>
        </mxCell>
        <mxCell id="SqCmMRaEzPAtH-QpOM38-7" value="&lt;div&gt;r3_load&lt;/div&gt;" style="edgeLabel;html=1;align=center;verticalAlign=middle;resizable=0;points=[];fontColor=#FF0000;" vertex="1" connectable="0" parent="SqCmMRaEzPAtH-QpOM38-6">
          <mxGeometry x="-0.2046" relative="1" as="geometry">
            <mxPoint x="-3" y="-18" as="offset" />
          </mxGeometry>
        </mxCell>
        <mxCell id="SqCmMRaEzPAtH-QpOM38-8" value="I" style="shape=stencil(rZTvDoIgFMWfhq8OIZt9bFbvQUrJInBg/96+q5RTzFbU5tzuOd6fXDmCaGZLVnFEcInoChESYwx3qC9ezWzF89qJZ2YE20ruHFsbfeAXUdQPhlAlN6JuXLpGeAnPNBfNcq0UQIRWduD0fIAxoaAXXx0MR8S95vaoXYXI5gtE+jsiGSDiEAT2lhHNQiix9z2ieQhl4UGS1xCagTK1bTTbsvywN/qkinHXpLfThr8wOltI6SL1ZqiKNWEbGU/7qM+8N+3nu/8ESKF6AI/Q/RPfMNI/MLqm8FHmPxOSIYEGIGYBi8iltu8SAfpEKOCMm4pT2zbKY6u6c7EV7g==);whiteSpace=wrap;html=1;rotation=-90;" vertex="1" parent="1">
          <mxGeometry x="-70" y="902" width="100" height="60" as="geometry" />
        </mxCell>
        <mxCell id="SqCmMRaEzPAtH-QpOM38-9" value="" style="endArrow=none;html=1;rounded=0;exitX=0.2;exitY=0;exitDx=0;exitDy=0;exitPerimeter=0;startSize=6;endSize=6;jumpSize=6;" edge="1" source="SqCmMRaEzPAtH-QpOM38-8" parent="1">
          <mxGeometry width="50" height="50" relative="1" as="geometry">
            <mxPoint x="-50" y="962" as="sourcePoint" />
            <mxPoint x="-70" y="962" as="targetPoint" />
          </mxGeometry>
        </mxCell>
        <mxCell id="SqCmMRaEzPAtH-QpOM38-10" value="1" style="edgeLabel;html=1;align=center;verticalAlign=middle;resizable=0;points=[];" vertex="1" connectable="0" parent="SqCmMRaEzPAtH-QpOM38-9">
          <mxGeometry x="0.2737" y="-1" relative="1" as="geometry">
            <mxPoint x="-7" y="-11" as="offset" />
          </mxGeometry>
        </mxCell>
        <mxCell id="SqCmMRaEzPAtH-QpOM38-11" value="" style="endArrow=none;html=1;rounded=0;exitX=0.8;exitY=0;exitDx=0;exitDy=0;exitPerimeter=0;entryX=1;entryY=0.5;entryDx=0;entryDy=0;" edge="1" parent="1" source="SqCmMRaEzPAtH-QpOM38-8" target="SqCmMRaEzPAtH-QpOM38-3">
          <mxGeometry width="50" height="50" relative="1" as="geometry">
            <mxPoint x="-50" y="907" as="sourcePoint" />
            <mxPoint x="-100" y="902" as="targetPoint" />
          </mxGeometry>
        </mxCell>
        <mxCell id="SqCmMRaEzPAtH-QpOM38-12" value="" style="endArrow=none;html=1;rounded=0;startSize=6;endSize=6;jumpSize=6;entryX=0.5;entryY=1;entryDx=0;entryDy=0;entryPerimeter=0;exitX=0.012;exitY=0.409;exitDx=0;exitDy=0;exitPerimeter=0;" edge="1" parent="1" source="SqCmMRaEzPAtH-QpOM38-14" target="SqCmMRaEzPAtH-QpOM38-8">
          <mxGeometry width="50" height="50" relative="1" as="geometry">
            <mxPoint x="-190" y="730" as="sourcePoint" />
            <mxPoint x="20" y="932" as="targetPoint" />
            <Array as="points">
              <mxPoint x="-200" y="680" />
              <mxPoint x="80" y="680" />
              <mxPoint x="80" y="932" />
            </Array>
          </mxGeometry>
        </mxCell>
        <mxCell id="SqCmMRaEzPAtH-QpOM38-14" value="" style="shape=stencil(rZPhDoIgFIWfhr8NYc3+Nqv3QKVkEjggrbfvKupKw5Vrc2z3HM6H3iuIJrZgFUcEF4geECERxrBC3UxqZiueOS/WzAiWSu4d64wueSNy1zOEKrgRrnXpEeE97GkfmmRaKYAIreyb8+IDjAkFWXz3sP74R19tyNYLiJxWM+IVjGjCWPMaQ2iE7AIUmoAS6hZNUpaVF6NvKp+ngt5ZG/7BGG0hpZ/kwldVrJ3xzBjsq655sOtL/RoAUqggYPwTf0GMoR4S/4FBv2JkUtulVoIe6CbcydAcuthskJ3q73EnPAE=);whiteSpace=wrap;html=1;flipV=1;fontSize=8;rotation=90;" vertex="1" parent="1">
          <mxGeometry x="-217.5" y="730" width="55" height="110" as="geometry" />
        </mxCell>
        <mxCell id="SqCmMRaEzPAtH-QpOM38-18" value="&lt;font&gt;00&lt;/font&gt;" style="text;html=1;align=center;verticalAlign=middle;resizable=0;points=[];autosize=1;strokeColor=none;fillColor=none;fontSize=12;" vertex="1" parent="1">
          <mxGeometry x="-245" y="749" width="40" height="30" as="geometry" />
        </mxCell>
        <mxCell id="SqCmMRaEzPAtH-QpOM38-19" value="&lt;font&gt;01&lt;/font&gt;" style="text;html=1;align=center;verticalAlign=middle;resizable=0;points=[];autosize=1;strokeColor=none;fillColor=none;fontSize=12;" vertex="1" parent="1">
          <mxGeometry x="-222.5" y="749" width="40" height="30" as="geometry" />
        </mxCell>
        <mxCell id="SqCmMRaEzPAtH-QpOM38-20" value="&lt;font&gt;10&lt;/font&gt;" style="text;html=1;align=center;verticalAlign=middle;resizable=0;points=[];autosize=1;strokeColor=none;fillColor=none;fontSize=12;" vertex="1" parent="1">
          <mxGeometry x="-197.5" y="749" width="40" height="30" as="geometry" />
        </mxCell>
        <mxCell id="SqCmMRaEzPAtH-QpOM38-21" value="&lt;font&gt;11&lt;/font&gt;" style="text;html=1;align=center;verticalAlign=middle;resizable=0;points=[];autosize=1;strokeColor=none;fillColor=none;fontSize=12;" vertex="1" parent="1">
          <mxGeometry x="-175" y="749" width="40" height="30" as="geometry" />
        </mxCell>
        <mxCell id="SqCmMRaEzPAtH-QpOM38-22" value="" style="endArrow=classic;html=1;rounded=0;entryX=0.539;entryY=0.143;entryDx=0;entryDy=0;entryPerimeter=0;strokeColor=#FF0000;" edge="1" target="SqCmMRaEzPAtH-QpOM38-14" parent="1">
          <mxGeometry width="50" height="50" relative="1" as="geometry">
            <mxPoint x="-270" y="787" as="sourcePoint" />
            <mxPoint x="-185" y="750" as="targetPoint" />
          </mxGeometry>
        </mxCell>
        <mxCell id="SqCmMRaEzPAtH-QpOM38-23" value="mux3_sel" style="edgeLabel;html=1;align=center;verticalAlign=middle;resizable=0;points=[];fontColor=#FF0000;" vertex="1" connectable="0" parent="SqCmMRaEzPAtH-QpOM38-22">
          <mxGeometry x="-0.2046" relative="1" as="geometry">
            <mxPoint x="-37" y="-12" as="offset" />
          </mxGeometry>
        </mxCell>
        <mxCell id="SqCmMRaEzPAtH-QpOM38-25" value="" style="endArrow=none;html=1;rounded=0;entryX=0.014;entryY=0.41;entryDx=0;entryDy=0;entryPerimeter=0;" edge="1" parent="1">
          <mxGeometry width="50" height="50" relative="1" as="geometry">
            <mxPoint x="-176.64" y="730" as="sourcePoint" />
            <mxPoint x="-176.64" y="758" as="targetPoint" />
          </mxGeometry>
        </mxCell>
        <mxCell id="SqCmMRaEzPAtH-QpOM38-29" value="&lt;font style=&quot;font-size: 12px;&quot;&gt;x&lt;/font&gt;" style="edgeLabel;html=1;align=center;verticalAlign=middle;resizable=0;points=[];" vertex="1" connectable="0" parent="SqCmMRaEzPAtH-QpOM38-25">
          <mxGeometry x="-0.5514" y="1" relative="1" as="geometry">
            <mxPoint x="1" y="-17" as="offset" />
          </mxGeometry>
        </mxCell>
        <mxCell id="SqCmMRaEzPAtH-QpOM38-26" value="" style="endArrow=none;html=1;rounded=0;entryX=0.014;entryY=0.41;entryDx=0;entryDy=0;entryPerimeter=0;" edge="1" parent="1">
          <mxGeometry width="50" height="50" relative="1" as="geometry">
            <mxPoint x="-154" y="730" as="sourcePoint" />
            <mxPoint x="-154" y="758" as="targetPoint" />
          </mxGeometry>
        </mxCell>
        <mxCell id="SqCmMRaEzPAtH-QpOM38-30" value="0" style="edgeLabel;html=1;align=center;verticalAlign=middle;resizable=0;points=[];" vertex="1" connectable="0" parent="SqCmMRaEzPAtH-QpOM38-26">
          <mxGeometry x="-0.7769" relative="1" as="geometry">
            <mxPoint x="2" y="-11" as="offset" />
          </mxGeometry>
        </mxCell>
        <mxCell id="SqCmMRaEzPAtH-QpOM38-27" value="" style="endArrow=none;html=1;rounded=0;entryX=0.014;entryY=0.41;entryDx=0;entryDy=0;entryPerimeter=0;" edge="1" parent="1">
          <mxGeometry width="50" height="50" relative="1" as="geometry">
            <mxPoint x="-225.07" y="730" as="sourcePoint" />
            <mxPoint x="-225.07" y="758" as="targetPoint" />
          </mxGeometry>
        </mxCell>
        <mxCell id="SqCmMRaEzPAtH-QpOM38-31" value="31" style="edgeLabel;html=1;align=center;verticalAlign=middle;resizable=0;points=[];" vertex="1" connectable="0" parent="SqCmMRaEzPAtH-QpOM38-27">
          <mxGeometry x="-0.2143" y="-1" relative="1" as="geometry">
            <mxPoint x="-4" y="-20" as="offset" />
          </mxGeometry>
        </mxCell>
        <mxCell id="SqCmMRaEzPAtH-QpOM38-33" value="" style="endArrow=classic;html=1;rounded=0;entryX=0.5;entryY=0;entryDx=0;entryDy=0;exitX=1;exitY=0.5;exitDx=0;exitDy=0;exitPerimeter=0;" edge="1" parent="1" source="SqCmMRaEzPAtH-QpOM38-14" target="SqCmMRaEzPAtH-QpOM38-3">
          <mxGeometry width="50" height="50" relative="1" as="geometry">
            <mxPoint x="-380" y="850" as="sourcePoint" />
            <mxPoint x="-330" y="800" as="targetPoint" />
          </mxGeometry>
        </mxCell>
        <mxCell id="SqCmMRaEzPAtH-QpOM38-34" value="" style="endArrow=classic;html=1;rounded=0;exitX=1;exitY=0.5;exitDx=0;exitDy=0;exitPerimeter=0;" edge="1" parent="1" source="R4eB-m3aGLz5YVXcL1x6-112">
          <mxGeometry width="50" height="50" relative="1" as="geometry">
            <mxPoint x="-587.9200000000001" y="1000" as="sourcePoint" />
            <mxPoint x="-588" y="1020" as="targetPoint" />
          </mxGeometry>
        </mxCell>
        <mxCell id="SqCmMRaEzPAtH-QpOM38-35" value="o_mem_data" style="edgeLabel;html=1;align=center;verticalAlign=middle;resizable=0;points=[];" vertex="1" connectable="0" parent="SqCmMRaEzPAtH-QpOM38-34">
          <mxGeometry x="0.2172" y="-3" relative="1" as="geometry">
            <mxPoint x="1" y="20" as="offset" />
          </mxGeometry>
        </mxCell>
        <mxCell id="SqCmMRaEzPAtH-QpOM38-40" value="" style="endArrow=classic;html=1;rounded=0;entryX=1;entryY=1;entryDx=0;entryDy=0;strokeColor=#FF0000;" edge="1" parent="1" target="R4eB-m3aGLz5YVXcL1x6-106">
          <mxGeometry width="50" height="50" relative="1" as="geometry">
            <mxPoint x="-620" y="770" as="sourcePoint" />
            <mxPoint x="-465" y="811" as="targetPoint" />
          </mxGeometry>
        </mxCell>
        <mxCell id="SqCmMRaEzPAtH-QpOM38-41" value="&lt;div&gt;r2_load&lt;/div&gt;" style="edgeLabel;html=1;align=center;verticalAlign=middle;resizable=0;points=[];fontColor=#FF0000;" vertex="1" connectable="0" parent="SqCmMRaEzPAtH-QpOM38-40">
          <mxGeometry x="-0.2046" relative="1" as="geometry">
            <mxPoint x="28" y="-2" as="offset" />
          </mxGeometry>
        </mxCell>
        <mxCell id="SqCmMRaEzPAtH-QpOM38-42" value="" style="endArrow=classic;html=1;rounded=0;entryX=1;entryY=1;entryDx=0;entryDy=0;strokeColor=#FF0000;" edge="1" parent="1">
          <mxGeometry width="50" height="50" relative="1" as="geometry">
            <mxPoint x="-620" y="580" as="sourcePoint" />
            <mxPoint x="-640" y="560" as="targetPoint" />
          </mxGeometry>
        </mxCell>
        <mxCell id="SqCmMRaEzPAtH-QpOM38-43" value="&lt;div&gt;r1_load&lt;/div&gt;" style="edgeLabel;html=1;align=center;verticalAlign=middle;resizable=0;points=[];fontColor=#FF0000;" vertex="1" connectable="0" parent="SqCmMRaEzPAtH-QpOM38-42">
          <mxGeometry x="-0.2046" relative="1" as="geometry">
            <mxPoint x="28" y="-2" as="offset" />
          </mxGeometry>
        </mxCell>
      </root>
    </mxGraphModel>
  </diagram>
  <diagram id="vMo8HzdKd6s13Rm86FQO" name="Page-2">
    <mxGraphModel dx="1750" dy="930" grid="1" gridSize="10" guides="1" tooltips="1" connect="1" arrows="1" fold="1" page="1" pageScale="1" pageWidth="850" pageHeight="1100" math="0" shadow="0">
      <root>
        <mxCell id="0" />
        <mxCell id="1" parent="0" />
        <mxCell id="wPcL-Xsfuvysh5Y14lTO-1" value="reg 1" style="whiteSpace=wrap;html=1;" vertex="1" parent="1">
          <mxGeometry x="300.66666666666674" y="230" width="120" height="60" as="geometry" />
        </mxCell>
        <mxCell id="wPcL-Xsfuvysh5Y14lTO-2" value="= 0 ?" style="rounded=0;whiteSpace=wrap;html=1;" vertex="1" parent="1">
          <mxGeometry x="510.66666666666674" y="230" width="120" height="60" as="geometry" />
        </mxCell>
        <mxCell id="wPcL-Xsfuvysh5Y14lTO-3" value="" style="endArrow=classic;html=1;rounded=0;strokeColor=#FF0000;exitX=1;exitY=0.5;exitDx=0;exitDy=0;" edge="1" source="wPcL-Xsfuvysh5Y14lTO-2" parent="1">
          <mxGeometry width="50" height="50" relative="1" as="geometry">
            <mxPoint x="690.6666666666667" y="270" as="sourcePoint" />
            <mxPoint x="690.6666666666667" y="260" as="targetPoint" />
          </mxGeometry>
        </mxCell>
        <mxCell id="wPcL-Xsfuvysh5Y14lTO-4" value="r1_is0" style="edgeLabel;html=1;align=center;verticalAlign=middle;resizable=0;points=[];fontColor=#FF0000;" vertex="1" connectable="0" parent="wPcL-Xsfuvysh5Y14lTO-3">
          <mxGeometry x="-0.2046" relative="1" as="geometry">
            <mxPoint x="6" y="9" as="offset" />
          </mxGeometry>
        </mxCell>
        <mxCell id="wPcL-Xsfuvysh5Y14lTO-5" value="" style="edgeStyle=orthogonalEdgeStyle;rounded=0;orthogonalLoop=1;jettySize=auto;html=1;exitX=1;exitY=0.5;exitDx=0;exitDy=0;" edge="1" source="wPcL-Xsfuvysh5Y14lTO-1" target="wPcL-Xsfuvysh5Y14lTO-2" parent="1">
          <mxGeometry relative="1" as="geometry">
            <mxPoint x="430.66666666666674" y="260" as="sourcePoint" />
          </mxGeometry>
        </mxCell>
        <mxCell id="wPcL-Xsfuvysh5Y14lTO-6" value="reg 2" style="whiteSpace=wrap;html=1;" vertex="1" parent="1">
          <mxGeometry x="300.66666666666674" y="420" width="120" height="60" as="geometry" />
        </mxCell>
        <mxCell id="wPcL-Xsfuvysh5Y14lTO-7" value="= 0 ?" style="rounded=0;whiteSpace=wrap;html=1;" vertex="1" parent="1">
          <mxGeometry x="510.66666666666674" y="420" width="120" height="60" as="geometry" />
        </mxCell>
        <mxCell id="wPcL-Xsfuvysh5Y14lTO-8" value="" style="endArrow=classic;html=1;rounded=0;strokeColor=#FF0000;exitX=1;exitY=0.5;exitDx=0;exitDy=0;" edge="1" parent="1">
          <mxGeometry width="50" height="50" relative="1" as="geometry">
            <mxPoint x="630.6666666666665" y="450" as="sourcePoint" />
            <mxPoint x="690.6666666666667" y="450" as="targetPoint" />
          </mxGeometry>
        </mxCell>
        <mxCell id="wPcL-Xsfuvysh5Y14lTO-9" value="r2_is0" style="edgeLabel;html=1;align=center;verticalAlign=middle;resizable=0;points=[];fontColor=#FF0000;" vertex="1" connectable="0" parent="wPcL-Xsfuvysh5Y14lTO-8">
          <mxGeometry x="-0.2046" relative="1" as="geometry">
            <mxPoint x="6" y="9" as="offset" />
          </mxGeometry>
        </mxCell>
        <mxCell id="wPcL-Xsfuvysh5Y14lTO-10" value="" style="edgeStyle=orthogonalEdgeStyle;rounded=0;orthogonalLoop=1;jettySize=auto;html=1;exitX=1;exitY=0.5;exitDx=0;exitDy=0;" edge="1" source="wPcL-Xsfuvysh5Y14lTO-6" target="wPcL-Xsfuvysh5Y14lTO-7" parent="1">
          <mxGeometry relative="1" as="geometry">
            <mxPoint x="430.66666666666674" y="450" as="sourcePoint" />
          </mxGeometry>
        </mxCell>
        <mxCell id="wPcL-Xsfuvysh5Y14lTO-11" value="" style="endArrow=classic;html=1;rounded=0;exitX=0.5;exitY=1;exitDx=0;exitDy=0;entryX=0.5;entryY=0;entryDx=0;entryDy=0;" edge="1" source="wPcL-Xsfuvysh5Y14lTO-1" target="wPcL-Xsfuvysh5Y14lTO-6" parent="1">
          <mxGeometry width="50" height="50" relative="1" as="geometry">
            <mxPoint x="500.66666666666674" y="370" as="sourcePoint" />
            <mxPoint x="550.6666666666667" y="320" as="targetPoint" />
          </mxGeometry>
        </mxCell>
        <mxCell id="wPcL-Xsfuvysh5Y14lTO-12" value="" style="shape=stencil(rZPhDoIgFIWfhr8NYc3+Nqv3QKVkEjggrbfvKupKw5Vrc2z3HM6H3iuIJrZgFUcEF4geECERxrBC3UxqZiueOS/WzAiWSu4d64wueSNy1zOEKrgRrnXpEeE97GkfmmRaKYAIreyb8+IDjAkFWXz3sP74R19tyNYLiJxWM+IVjGjCWPMaQ2iE7AIUmoAS6hZNUpaVF6NvKp+ngt5ZG/7BGG0hpZ/kwldVrJ3xzBjsq655sOtL/RoAUqggYPwTf0GMoR4S/4FBv2JkUtulVoIe6CbcydAcuthskJ3q73EnPAE=);whiteSpace=wrap;html=1;flipV=1;fontSize=8;rotation=90;" vertex="1" parent="1">
          <mxGeometry x="445.66666666666674" y="642" width="55" height="110" as="geometry" />
        </mxCell>
        <mxCell id="wPcL-Xsfuvysh5Y14lTO-13" value="" style="endArrow=none;html=1;rounded=0;entryX=0;entryY=0.75;entryDx=0;entryDy=0;entryPerimeter=0;exitX=0;exitY=0.5;exitDx=0;exitDy=0;" edge="1" source="wPcL-Xsfuvysh5Y14lTO-19" target="wPcL-Xsfuvysh5Y14lTO-12" parent="1">
          <mxGeometry width="50" height="50" relative="1" as="geometry">
            <mxPoint x="810.6666666666667" y="632" as="sourcePoint" />
            <mxPoint x="580.6666666666667" y="600" as="targetPoint" />
            <Array as="points">
              <mxPoint x="500.66666666666674" y="632" />
            </Array>
          </mxGeometry>
        </mxCell>
        <mxCell id="wPcL-Xsfuvysh5Y14lTO-14" value="0" style="text;html=1;align=center;verticalAlign=middle;resizable=0;points=[];autosize=1;strokeColor=none;fillColor=none;" vertex="1" parent="1">
          <mxGeometry x="435.66666666666674" y="666" width="30" height="30" as="geometry" />
        </mxCell>
        <mxCell id="wPcL-Xsfuvysh5Y14lTO-15" value="1" style="text;html=1;align=center;verticalAlign=middle;resizable=0;points=[];autosize=1;strokeColor=none;fillColor=none;" vertex="1" parent="1">
          <mxGeometry x="481.66666666666674" y="666" width="30" height="30" as="geometry" />
        </mxCell>
        <mxCell id="wPcL-Xsfuvysh5Y14lTO-16" value="" style="endArrow=none;html=1;rounded=0;entryX=0.5;entryY=1;entryDx=0;entryDy=0;exitX=0.004;exitY=0.297;exitDx=0;exitDy=0;exitPerimeter=0;" edge="1" source="wPcL-Xsfuvysh5Y14lTO-12" target="wPcL-Xsfuvysh5Y14lTO-6" parent="1">
          <mxGeometry width="50" height="50" relative="1" as="geometry">
            <mxPoint x="460.66666666666674" y="650" as="sourcePoint" />
            <mxPoint x="590.6666666666667" y="642" as="targetPoint" />
            <Array as="points">
              <mxPoint x="450.66666666666674" y="630" />
              <mxPoint x="360.66666666666674" y="630" />
            </Array>
          </mxGeometry>
        </mxCell>
        <mxCell id="wPcL-Xsfuvysh5Y14lTO-17" value="" style="endArrow=classic;html=1;rounded=0;entryX=0;entryY=0.5;entryDx=0;entryDy=0;" edge="1" target="wPcL-Xsfuvysh5Y14lTO-1" parent="1">
          <mxGeometry width="50" height="50" relative="1" as="geometry">
            <mxPoint x="240.66666666666674" y="260" as="sourcePoint" />
            <mxPoint x="300.66666666666674" y="255" as="targetPoint" />
          </mxGeometry>
        </mxCell>
        <mxCell id="wPcL-Xsfuvysh5Y14lTO-18" value="i_mem_data" style="edgeLabel;html=1;align=center;verticalAlign=middle;resizable=0;points=[];" vertex="1" connectable="0" parent="wPcL-Xsfuvysh5Y14lTO-17">
          <mxGeometry x="-0.5316" y="1" relative="1" as="geometry">
            <mxPoint x="-14" y="-14" as="offset" />
          </mxGeometry>
        </mxCell>
        <mxCell id="wPcL-Xsfuvysh5Y14lTO-19" value="reg 3" style="rounded=0;whiteSpace=wrap;html=1;" vertex="1" parent="1">
          <mxGeometry x="810.6666666666667" y="602" width="120" height="60" as="geometry" />
        </mxCell>
        <mxCell id="wPcL-Xsfuvysh5Y14lTO-20" value="" style="endArrow=classic;html=1;rounded=0;exitX=0.5;exitY=1;exitDx=0;exitDy=0;" edge="1" source="wPcL-Xsfuvysh5Y14lTO-19" parent="1">
          <mxGeometry width="50" height="50" relative="1" as="geometry">
            <mxPoint x="820.6666666666667" y="660" as="sourcePoint" />
            <mxPoint x="810.6666666666667" y="730" as="targetPoint" />
            <Array as="points">
              <mxPoint x="870.6666666666667" y="730" />
            </Array>
          </mxGeometry>
        </mxCell>
        <mxCell id="wPcL-Xsfuvysh5Y14lTO-21" value="= 0?" style="rounded=0;whiteSpace=wrap;html=1;" vertex="1" parent="1">
          <mxGeometry x="690.6666666666667" y="700" width="120" height="60" as="geometry" />
        </mxCell>
        <mxCell id="wPcL-Xsfuvysh5Y14lTO-22" value="" style="endArrow=classic;html=1;rounded=0;entryX=0.002;entryY=0.153;entryDx=0;entryDy=0;strokeColor=#FF0000;entryPerimeter=0;" edge="1" target="wPcL-Xsfuvysh5Y14lTO-19" parent="1">
          <mxGeometry width="50" height="50" relative="1" as="geometry">
            <mxPoint x="765.6666666666667" y="590" as="sourcePoint" />
            <mxPoint x="735.6666666666667" y="560" as="targetPoint" />
          </mxGeometry>
        </mxCell>
        <mxCell id="wPcL-Xsfuvysh5Y14lTO-23" value="&lt;div&gt;r3_load&lt;/div&gt;" style="edgeLabel;html=1;align=center;verticalAlign=middle;resizable=0;points=[];fontColor=#FF0000;" vertex="1" connectable="0" parent="wPcL-Xsfuvysh5Y14lTO-22">
          <mxGeometry x="-0.2046" relative="1" as="geometry">
            <mxPoint x="-3" y="-18" as="offset" />
          </mxGeometry>
        </mxCell>
        <mxCell id="wPcL-Xsfuvysh5Y14lTO-24" value="I" style="shape=stencil(rZTvDoIgFMWfhq8OIZt9bFbvQUrJInBg/96+q5RTzFbU5tzuOd6fXDmCaGZLVnFEcInoChESYwx3qC9ezWzF89qJZ2YE20ruHFsbfeAXUdQPhlAlN6JuXLpGeAnPNBfNcq0UQIRWduD0fIAxoaAXXx0MR8S95vaoXYXI5gtE+jsiGSDiEAT2lhHNQiix9z2ieQhl4UGS1xCagTK1bTTbsvywN/qkinHXpLfThr8wOltI6SL1ZqiKNWEbGU/7qM+8N+3nu/8ESKF6AI/Q/RPfMNI/MLqm8FHmPxOSIYEGIGYBi8iltu8SAfpEKOCMm4pT2zbKY6u6c7EV7g==);whiteSpace=wrap;html=1;rotation=-90;" vertex="1" parent="1">
          <mxGeometry x="990.6666666666667" y="632" width="100" height="60" as="geometry" />
        </mxCell>
        <mxCell id="wPcL-Xsfuvysh5Y14lTO-25" value="" style="endArrow=none;html=1;rounded=0;exitX=0.2;exitY=0;exitDx=0;exitDy=0;exitPerimeter=0;startSize=6;endSize=6;jumpSize=6;" edge="1" source="wPcL-Xsfuvysh5Y14lTO-24" parent="1">
          <mxGeometry width="50" height="50" relative="1" as="geometry">
            <mxPoint x="1010.6666666666667" y="692" as="sourcePoint" />
            <mxPoint x="990.6666666666667" y="692" as="targetPoint" />
          </mxGeometry>
        </mxCell>
        <mxCell id="wPcL-Xsfuvysh5Y14lTO-26" value="1" style="edgeLabel;html=1;align=center;verticalAlign=middle;resizable=0;points=[];" vertex="1" connectable="0" parent="wPcL-Xsfuvysh5Y14lTO-25">
          <mxGeometry x="0.2737" y="-1" relative="1" as="geometry">
            <mxPoint x="-7" y="-11" as="offset" />
          </mxGeometry>
        </mxCell>
        <mxCell id="wPcL-Xsfuvysh5Y14lTO-27" value="" style="endArrow=none;html=1;rounded=0;exitX=0.8;exitY=0;exitDx=0;exitDy=0;exitPerimeter=0;entryX=1;entryY=0.5;entryDx=0;entryDy=0;" edge="1" source="wPcL-Xsfuvysh5Y14lTO-24" target="wPcL-Xsfuvysh5Y14lTO-19" parent="1">
          <mxGeometry width="50" height="50" relative="1" as="geometry">
            <mxPoint x="1010.6666666666667" y="637" as="sourcePoint" />
            <mxPoint x="960.6666666666667" y="632" as="targetPoint" />
          </mxGeometry>
        </mxCell>
        <mxCell id="wPcL-Xsfuvysh5Y14lTO-28" value="" style="endArrow=none;html=1;rounded=0;startSize=6;endSize=6;jumpSize=6;entryX=0.5;entryY=1;entryDx=0;entryDy=0;entryPerimeter=0;exitX=0.012;exitY=0.409;exitDx=0;exitDy=0;exitPerimeter=0;" edge="1" source="wPcL-Xsfuvysh5Y14lTO-29" target="wPcL-Xsfuvysh5Y14lTO-24" parent="1">
          <mxGeometry width="50" height="50" relative="1" as="geometry">
            <mxPoint x="870.6666666666667" y="460" as="sourcePoint" />
            <mxPoint x="1080.6666666666667" y="662" as="targetPoint" />
            <Array as="points">
              <mxPoint x="860.6666666666667" y="410" />
              <mxPoint x="1140.6666666666667" y="410" />
              <mxPoint x="1140.6666666666667" y="662" />
            </Array>
          </mxGeometry>
        </mxCell>
        <mxCell id="wPcL-Xsfuvysh5Y14lTO-29" value="" style="shape=stencil(rZPhDoIgFIWfhr8NYc3+Nqv3QKVkEjggrbfvKupKw5Vrc2z3HM6H3iuIJrZgFUcEF4geECERxrBC3UxqZiueOS/WzAiWSu4d64wueSNy1zOEKrgRrnXpEeE97GkfmmRaKYAIreyb8+IDjAkFWXz3sP74R19tyNYLiJxWM+IVjGjCWPMaQ2iE7AIUmoAS6hZNUpaVF6NvKp+ngt5ZG/7BGG0hpZ/kwldVrJ3xzBjsq655sOtL/RoAUqggYPwTf0GMoR4S/4FBv2JkUtulVoIe6CbcydAcuthskJ3q73EnPAE=);whiteSpace=wrap;html=1;flipV=1;fontSize=8;rotation=90;" vertex="1" parent="1">
          <mxGeometry x="843.1666666666667" y="460" width="55" height="110" as="geometry" />
        </mxCell>
        <mxCell id="wPcL-Xsfuvysh5Y14lTO-30" value="&lt;font&gt;00&lt;/font&gt;" style="text;html=1;align=center;verticalAlign=middle;resizable=0;points=[];autosize=1;strokeColor=none;fillColor=none;fontSize=12;" vertex="1" parent="1">
          <mxGeometry x="815.6666666666667" y="479" width="40" height="30" as="geometry" />
        </mxCell>
        <mxCell id="wPcL-Xsfuvysh5Y14lTO-31" value="&lt;font&gt;01&lt;/font&gt;" style="text;html=1;align=center;verticalAlign=middle;resizable=0;points=[];autosize=1;strokeColor=none;fillColor=none;fontSize=12;" vertex="1" parent="1">
          <mxGeometry x="838.1666666666667" y="479" width="40" height="30" as="geometry" />
        </mxCell>
        <mxCell id="wPcL-Xsfuvysh5Y14lTO-32" value="&lt;font&gt;10&lt;/font&gt;" style="text;html=1;align=center;verticalAlign=middle;resizable=0;points=[];autosize=1;strokeColor=none;fillColor=none;fontSize=12;" vertex="1" parent="1">
          <mxGeometry x="863.1666666666667" y="479" width="40" height="30" as="geometry" />
        </mxCell>
        <mxCell id="wPcL-Xsfuvysh5Y14lTO-33" value="&lt;font&gt;11&lt;/font&gt;" style="text;html=1;align=center;verticalAlign=middle;resizable=0;points=[];autosize=1;strokeColor=none;fillColor=none;fontSize=12;" vertex="1" parent="1">
          <mxGeometry x="885.6666666666667" y="479" width="40" height="30" as="geometry" />
        </mxCell>
        <mxCell id="wPcL-Xsfuvysh5Y14lTO-34" value="" style="endArrow=classic;html=1;rounded=0;entryX=0.539;entryY=0.143;entryDx=0;entryDy=0;entryPerimeter=0;strokeColor=#FF0000;" edge="1" target="wPcL-Xsfuvysh5Y14lTO-29" parent="1">
          <mxGeometry width="50" height="50" relative="1" as="geometry">
            <mxPoint x="790.6666666666667" y="517" as="sourcePoint" />
            <mxPoint x="875.6666666666667" y="480" as="targetPoint" />
          </mxGeometry>
        </mxCell>
        <mxCell id="wPcL-Xsfuvysh5Y14lTO-35" value="mux3_sel" style="edgeLabel;html=1;align=center;verticalAlign=middle;resizable=0;points=[];fontColor=#FF0000;" vertex="1" connectable="0" parent="wPcL-Xsfuvysh5Y14lTO-34">
          <mxGeometry x="-0.2046" relative="1" as="geometry">
            <mxPoint x="-37" y="-12" as="offset" />
          </mxGeometry>
        </mxCell>
        <mxCell id="wPcL-Xsfuvysh5Y14lTO-36" value="" style="endArrow=none;html=1;rounded=0;entryX=0.014;entryY=0.41;entryDx=0;entryDy=0;entryPerimeter=0;" edge="1" parent="1">
          <mxGeometry width="50" height="50" relative="1" as="geometry">
            <mxPoint x="884.0266666666668" y="460" as="sourcePoint" />
            <mxPoint x="884.0266666666668" y="488" as="targetPoint" />
          </mxGeometry>
        </mxCell>
        <mxCell id="wPcL-Xsfuvysh5Y14lTO-37" value="&lt;font style=&quot;font-size: 12px;&quot;&gt;x&lt;/font&gt;" style="edgeLabel;html=1;align=center;verticalAlign=middle;resizable=0;points=[];" vertex="1" connectable="0" parent="wPcL-Xsfuvysh5Y14lTO-36">
          <mxGeometry x="-0.5514" y="1" relative="1" as="geometry">
            <mxPoint x="1" y="-17" as="offset" />
          </mxGeometry>
        </mxCell>
        <mxCell id="wPcL-Xsfuvysh5Y14lTO-38" value="" style="endArrow=none;html=1;rounded=0;entryX=0.014;entryY=0.41;entryDx=0;entryDy=0;entryPerimeter=0;" edge="1" parent="1">
          <mxGeometry width="50" height="50" relative="1" as="geometry">
            <mxPoint x="906.6666666666667" y="460" as="sourcePoint" />
            <mxPoint x="906.6666666666667" y="488" as="targetPoint" />
          </mxGeometry>
        </mxCell>
        <mxCell id="wPcL-Xsfuvysh5Y14lTO-39" value="0" style="edgeLabel;html=1;align=center;verticalAlign=middle;resizable=0;points=[];" vertex="1" connectable="0" parent="wPcL-Xsfuvysh5Y14lTO-38">
          <mxGeometry x="-0.7769" relative="1" as="geometry">
            <mxPoint x="2" y="-11" as="offset" />
          </mxGeometry>
        </mxCell>
        <mxCell id="wPcL-Xsfuvysh5Y14lTO-40" value="" style="endArrow=none;html=1;rounded=0;entryX=0.014;entryY=0.41;entryDx=0;entryDy=0;entryPerimeter=0;" edge="1" parent="1">
          <mxGeometry width="50" height="50" relative="1" as="geometry">
            <mxPoint x="835.5966666666668" y="460" as="sourcePoint" />
            <mxPoint x="835.5966666666668" y="488" as="targetPoint" />
          </mxGeometry>
        </mxCell>
        <mxCell id="wPcL-Xsfuvysh5Y14lTO-41" value="31" style="edgeLabel;html=1;align=center;verticalAlign=middle;resizable=0;points=[];" vertex="1" connectable="0" parent="wPcL-Xsfuvysh5Y14lTO-40">
          <mxGeometry x="-0.2143" y="-1" relative="1" as="geometry">
            <mxPoint x="-4" y="-20" as="offset" />
          </mxGeometry>
        </mxCell>
        <mxCell id="wPcL-Xsfuvysh5Y14lTO-42" value="" style="endArrow=classic;html=1;rounded=0;entryX=0.5;entryY=0;entryDx=0;entryDy=0;exitX=1;exitY=0.5;exitDx=0;exitDy=0;exitPerimeter=0;" edge="1" source="wPcL-Xsfuvysh5Y14lTO-29" target="wPcL-Xsfuvysh5Y14lTO-19" parent="1">
          <mxGeometry width="50" height="50" relative="1" as="geometry">
            <mxPoint x="680.6666666666667" y="580" as="sourcePoint" />
            <mxPoint x="730.6666666666667" y="530" as="targetPoint" />
          </mxGeometry>
        </mxCell>
        <mxCell id="wPcL-Xsfuvysh5Y14lTO-43" value="" style="endArrow=classic;html=1;rounded=0;exitX=1;exitY=0.5;exitDx=0;exitDy=0;exitPerimeter=0;" edge="1" source="wPcL-Xsfuvysh5Y14lTO-12" parent="1">
          <mxGeometry width="50" height="50" relative="1" as="geometry">
            <mxPoint x="472.74666666666667" y="730" as="sourcePoint" />
            <mxPoint x="472.66666666666674" y="750" as="targetPoint" />
          </mxGeometry>
        </mxCell>
        <mxCell id="wPcL-Xsfuvysh5Y14lTO-44" value="o_mem_data" style="edgeLabel;html=1;align=center;verticalAlign=middle;resizable=0;points=[];" vertex="1" connectable="0" parent="wPcL-Xsfuvysh5Y14lTO-43">
          <mxGeometry x="0.2172" y="-3" relative="1" as="geometry">
            <mxPoint x="1" y="20" as="offset" />
          </mxGeometry>
        </mxCell>
        <mxCell id="wPcL-Xsfuvysh5Y14lTO-45" value="" style="endArrow=classic;html=1;rounded=0;entryX=1;entryY=1;entryDx=0;entryDy=0;strokeColor=#FF0000;" edge="1" target="wPcL-Xsfuvysh5Y14lTO-6" parent="1">
          <mxGeometry width="50" height="50" relative="1" as="geometry">
            <mxPoint x="440.66666666666674" y="500" as="sourcePoint" />
            <mxPoint x="595.6666666666667" y="541" as="targetPoint" />
          </mxGeometry>
        </mxCell>
        <mxCell id="wPcL-Xsfuvysh5Y14lTO-46" value="&lt;div&gt;r2_load&lt;/div&gt;" style="edgeLabel;html=1;align=center;verticalAlign=middle;resizable=0;points=[];fontColor=#FF0000;" vertex="1" connectable="0" parent="wPcL-Xsfuvysh5Y14lTO-45">
          <mxGeometry x="-0.2046" relative="1" as="geometry">
            <mxPoint x="28" y="-2" as="offset" />
          </mxGeometry>
        </mxCell>
        <mxCell id="wPcL-Xsfuvysh5Y14lTO-47" value="" style="endArrow=classic;html=1;rounded=0;entryX=1;entryY=1;entryDx=0;entryDy=0;strokeColor=#FF0000;" edge="1" parent="1">
          <mxGeometry width="50" height="50" relative="1" as="geometry">
            <mxPoint x="440.66666666666674" y="310" as="sourcePoint" />
            <mxPoint x="420.66666666666674" y="290" as="targetPoint" />
          </mxGeometry>
        </mxCell>
        <mxCell id="wPcL-Xsfuvysh5Y14lTO-48" value="&lt;div&gt;r1_load&lt;/div&gt;" style="edgeLabel;html=1;align=center;verticalAlign=middle;resizable=0;points=[];fontColor=#FF0000;" vertex="1" connectable="0" parent="wPcL-Xsfuvysh5Y14lTO-47">
          <mxGeometry x="-0.2046" relative="1" as="geometry">
            <mxPoint x="28" y="-2" as="offset" />
          </mxGeometry>
        </mxCell>
      </root>
    </mxGraphModel>
  </diagram>
  <diagram id="PXnLQC9A5-AiRw7-NCp7" name="Page-3">
    <mxGraphModel dx="1050" dy="558" grid="1" gridSize="10" guides="1" tooltips="1" connect="1" arrows="1" fold="1" page="1" pageScale="1" pageWidth="850" pageHeight="1100" math="0" shadow="0">
      <root>
        <mxCell id="0" />
        <mxCell id="1" parent="0" />
        <mxCell id="cQv5aJ_Jd-sUWwFaG1Pl-1" value="" style="shape=stencil(rZPhDoIgFIWfhr8NYc3+Nqv3QKVkEjggrbfvKupKw5Vrc2z3HM6H3iuIJrZgFUcEF4geECERxrBC3UxqZiueOS/WzAiWSu4d64wueSNy1zOEKrgRrnXpEeE97GkfmmRaKYAIreyb8+IDjAkFWXz3sP74R19tyNYLiJxWM+IVjGjCWPMaQ2iE7AIUmoAS6hZNUpaVF6NvKp+ngt5ZG/7BGG0hpZ/kwldVrJ3xzBjsq655sOtL/RoAUqggYPwTf0GMoR4S/4FBv2JkUtulVoIe6CbcydAcuthskJ3q73EnPAE=);whiteSpace=wrap;html=1;flipV=1;fontSize=8;" vertex="1" parent="1">
          <mxGeometry x="385" y="220" width="55" height="110" as="geometry" />
        </mxCell>
        <mxCell id="cQv5aJ_Jd-sUWwFaG1Pl-2" value="" style="endArrow=none;html=1;rounded=0;" edge="1" parent="1">
          <mxGeometry width="50" height="50" relative="1" as="geometry">
            <mxPoint x="360" y="290" as="sourcePoint" />
            <mxPoint x="385" y="290" as="targetPoint" />
          </mxGeometry>
        </mxCell>
        <mxCell id="cQv5aJ_Jd-sUWwFaG1Pl-3" value="" style="endArrow=none;html=1;rounded=0;entryX=0.003;entryY=0.64;entryDx=0;entryDy=0;entryPerimeter=0;" edge="1" target="cQv5aJ_Jd-sUWwFaG1Pl-1" parent="1">
          <mxGeometry width="50" height="50" relative="1" as="geometry">
            <mxPoint x="310" y="260" as="sourcePoint" />
            <mxPoint x="320" y="280" as="targetPoint" />
          </mxGeometry>
        </mxCell>
        <mxCell id="cQv5aJ_Jd-sUWwFaG1Pl-4" value="i_k" style="edgeLabel;html=1;align=center;verticalAlign=middle;resizable=0;points=[];" vertex="1" connectable="0" parent="cQv5aJ_Jd-sUWwFaG1Pl-3">
          <mxGeometry x="-0.4812" relative="1" as="geometry">
            <mxPoint x="-19" y="-10" as="offset" />
          </mxGeometry>
        </mxCell>
        <mxCell id="cQv5aJ_Jd-sUWwFaG1Pl-5" value="" style="endArrow=none;html=1;rounded=0;" edge="1" target="cQv5aJ_Jd-sUWwFaG1Pl-7" parent="1">
          <mxGeometry width="50" height="50" relative="1" as="geometry">
            <mxPoint x="440" y="280" as="sourcePoint" />
            <mxPoint x="490" y="280" as="targetPoint" />
          </mxGeometry>
        </mxCell>
        <mxCell id="cQv5aJ_Jd-sUWwFaG1Pl-6" value="" style="edgeStyle=orthogonalEdgeStyle;rounded=0;orthogonalLoop=1;jettySize=auto;html=1;" edge="1" source="cQv5aJ_Jd-sUWwFaG1Pl-7" target="cQv5aJ_Jd-sUWwFaG1Pl-19" parent="1">
          <mxGeometry relative="1" as="geometry" />
        </mxCell>
        <mxCell id="cQv5aJ_Jd-sUWwFaG1Pl-7" value="reg 4" style="rounded=0;whiteSpace=wrap;html=1;" vertex="1" parent="1">
          <mxGeometry x="490" y="250" width="120" height="60" as="geometry" />
        </mxCell>
        <mxCell id="cQv5aJ_Jd-sUWwFaG1Pl-8" value="0" style="text;html=1;align=center;verticalAlign=middle;resizable=0;points=[];autosize=1;strokeColor=none;fillColor=none;" vertex="1" parent="1">
          <mxGeometry x="376" y="242" width="30" height="30" as="geometry" />
        </mxCell>
        <mxCell id="cQv5aJ_Jd-sUWwFaG1Pl-9" value="1" style="text;html=1;align=center;verticalAlign=middle;resizable=0;points=[];autosize=1;strokeColor=none;fillColor=none;" vertex="1" parent="1">
          <mxGeometry x="375" y="274" width="30" height="30" as="geometry" />
        </mxCell>
        <mxCell id="cQv5aJ_Jd-sUWwFaG1Pl-10" value="" style="endArrow=none;html=1;rounded=0;exitX=0.2;exitY=0;exitDx=0;exitDy=0;exitPerimeter=0;" edge="1" source="cQv5aJ_Jd-sUWwFaG1Pl-13" parent="1">
          <mxGeometry width="50" height="50" relative="1" as="geometry">
            <mxPoint x="540" y="232" as="sourcePoint" />
            <mxPoint x="550" y="442" as="targetPoint" />
          </mxGeometry>
        </mxCell>
        <mxCell id="cQv5aJ_Jd-sUWwFaG1Pl-11" value="1" style="edgeLabel;html=1;align=center;verticalAlign=middle;resizable=0;points=[];" vertex="1" connectable="0" parent="cQv5aJ_Jd-sUWwFaG1Pl-10">
          <mxGeometry x="0.2737" y="-1" relative="1" as="geometry">
            <mxPoint x="-11" y="-9" as="offset" />
          </mxGeometry>
        </mxCell>
        <mxCell id="cQv5aJ_Jd-sUWwFaG1Pl-12" value="" style="endArrow=none;html=1;rounded=0;exitX=0.8;exitY=0;exitDx=0;exitDy=0;exitPerimeter=0;" edge="1" parent="1">
          <mxGeometry width="50" height="50" relative="1" as="geometry">
            <mxPoint x="580" y="380" as="sourcePoint" />
            <mxPoint x="550" y="380" as="targetPoint" />
          </mxGeometry>
        </mxCell>
        <mxCell id="cQv5aJ_Jd-sUWwFaG1Pl-13" value="I" style="shape=stencil(rZTvDoIgFMWfhq8OIZt9bFbvQUrJInBg/96+q5RTzFbU5tzuOd6fXDmCaGZLVnFEcInoChESYwx3qC9ezWzF89qJZ2YE20ruHFsbfeAXUdQPhlAlN6JuXLpGeAnPNBfNcq0UQIRWduD0fIAxoaAXXx0MR8S95vaoXYXI5gtE+jsiGSDiEAT2lhHNQiix9z2ieQhl4UGS1xCagTK1bTTbsvywN/qkinHXpLfThr8wOltI6SL1ZqiKNWEbGU/7qM+8N+3nu/8ESKF6AI/Q/RPfMNI/MLqm8FHmPxOSIYEGIGYBi8iltu8SAfpEKOCMm4pT2zbKY6u6c7EV7g==);whiteSpace=wrap;html=1;rotation=-90;" vertex="1" parent="1">
          <mxGeometry x="560" y="382" width="100" height="60" as="geometry" />
        </mxCell>
        <mxCell id="cQv5aJ_Jd-sUWwFaG1Pl-14" value="" style="endArrow=none;html=1;rounded=0;" edge="1" parent="1">
          <mxGeometry width="50" height="50" relative="1" as="geometry">
            <mxPoint x="360" y="512" as="sourcePoint" />
            <mxPoint x="710" y="512" as="targetPoint" />
            <Array as="points" />
          </mxGeometry>
        </mxCell>
        <mxCell id="cQv5aJ_Jd-sUWwFaG1Pl-15" value="" style="endArrow=none;html=1;rounded=0;" edge="1" parent="1">
          <mxGeometry width="50" height="50" relative="1" as="geometry">
            <mxPoint x="710" y="512" as="sourcePoint" />
            <mxPoint x="710" y="412" as="targetPoint" />
            <Array as="points" />
          </mxGeometry>
        </mxCell>
        <mxCell id="cQv5aJ_Jd-sUWwFaG1Pl-16" value="" style="endArrow=none;html=1;rounded=0;entryX=0.5;entryY=1;entryDx=0;entryDy=0;entryPerimeter=0;" edge="1" target="cQv5aJ_Jd-sUWwFaG1Pl-13" parent="1">
          <mxGeometry width="50" height="50" relative="1" as="geometry">
            <mxPoint x="710" y="412" as="sourcePoint" />
            <mxPoint x="640" y="271.56999999999994" as="targetPoint" />
            <Array as="points" />
          </mxGeometry>
        </mxCell>
        <mxCell id="cQv5aJ_Jd-sUWwFaG1Pl-17" value="" style="endArrow=none;html=1;rounded=0;" edge="1" parent="1">
          <mxGeometry width="50" height="50" relative="1" as="geometry">
            <mxPoint x="360" y="512" as="sourcePoint" />
            <mxPoint x="360" y="290" as="targetPoint" />
            <Array as="points" />
          </mxGeometry>
        </mxCell>
        <mxCell id="cQv5aJ_Jd-sUWwFaG1Pl-18" value="" style="endArrow=none;html=1;rounded=0;entryX=0.5;entryY=1;entryDx=0;entryDy=0;" edge="1" parent="1">
          <mxGeometry width="50" height="50" relative="1" as="geometry">
            <mxPoint x="550" y="380" as="sourcePoint" />
            <mxPoint x="550" y="310" as="targetPoint" />
            <Array as="points" />
          </mxGeometry>
        </mxCell>
        <mxCell id="cQv5aJ_Jd-sUWwFaG1Pl-19" value="= 0 ?" style="rounded=0;whiteSpace=wrap;html=1;" vertex="1" parent="1">
          <mxGeometry x="690" y="250" width="120" height="60" as="geometry" />
        </mxCell>
        <mxCell id="cQv5aJ_Jd-sUWwFaG1Pl-20" value="" style="endArrow=classic;html=1;rounded=0;entryX=0.501;entryY=0.137;entryDx=0;entryDy=0;entryPerimeter=0;strokeColor=#FF0000;" edge="1" target="cQv5aJ_Jd-sUWwFaG1Pl-1" parent="1">
          <mxGeometry width="50" height="50" relative="1" as="geometry">
            <mxPoint x="413" y="360" as="sourcePoint" />
            <mxPoint x="412.6550000000002" y="317.78999999999996" as="targetPoint" />
          </mxGeometry>
        </mxCell>
        <mxCell id="cQv5aJ_Jd-sUWwFaG1Pl-21" value="k_sel" style="edgeLabel;html=1;align=center;verticalAlign=middle;resizable=0;points=[];fontColor=#FF0000;" vertex="1" connectable="0" parent="cQv5aJ_Jd-sUWwFaG1Pl-20">
          <mxGeometry x="-0.2046" relative="1" as="geometry">
            <mxPoint x="17" y="8" as="offset" />
          </mxGeometry>
        </mxCell>
        <mxCell id="cQv5aJ_Jd-sUWwFaG1Pl-22" value="" style="endArrow=classic;html=1;rounded=0;entryX=1;entryY=1;entryDx=0;entryDy=0;strokeColor=#FF0000;" edge="1" target="cQv5aJ_Jd-sUWwFaG1Pl-7" parent="1">
          <mxGeometry width="50" height="50" relative="1" as="geometry">
            <mxPoint x="640" y="340" as="sourcePoint" />
            <mxPoint x="620" y="304" as="targetPoint" />
          </mxGeometry>
        </mxCell>
        <mxCell id="cQv5aJ_Jd-sUWwFaG1Pl-23" value="r4_load" style="edgeLabel;html=1;align=center;verticalAlign=middle;resizable=0;points=[];fontColor=#FF0000;" vertex="1" connectable="0" parent="cQv5aJ_Jd-sUWwFaG1Pl-22">
          <mxGeometry x="-0.2046" relative="1" as="geometry">
            <mxPoint x="17" y="8" as="offset" />
          </mxGeometry>
        </mxCell>
        <mxCell id="cQv5aJ_Jd-sUWwFaG1Pl-24" value="" style="endArrow=classic;html=1;rounded=0;strokeColor=#FF0000;exitX=1;exitY=0.5;exitDx=0;exitDy=0;" edge="1" source="cQv5aJ_Jd-sUWwFaG1Pl-19" parent="1">
          <mxGeometry width="50" height="50" relative="1" as="geometry">
            <mxPoint x="870" y="290" as="sourcePoint" />
            <mxPoint x="870" y="280" as="targetPoint" />
          </mxGeometry>
        </mxCell>
        <mxCell id="cQv5aJ_Jd-sUWwFaG1Pl-25" value="k_is0" style="edgeLabel;html=1;align=center;verticalAlign=middle;resizable=0;points=[];fontColor=#FF0000;" vertex="1" connectable="0" parent="cQv5aJ_Jd-sUWwFaG1Pl-24">
          <mxGeometry x="-0.2046" relative="1" as="geometry">
            <mxPoint x="6" y="9" as="offset" />
          </mxGeometry>
        </mxCell>
      </root>
    </mxGraphModel>
  </diagram>
  <diagram id="-VFuo8Y3-z1OGkneAqEe" name="Page-4">
    <mxGraphModel dx="1050" dy="558" grid="1" gridSize="10" guides="1" tooltips="1" connect="1" arrows="1" fold="1" page="1" pageScale="1" pageWidth="850" pageHeight="1100" math="0" shadow="0">
      <root>
        <mxCell id="0" />
        <mxCell id="1" parent="0" />
        <mxCell id="pL2ed25bZTicXIQe8n6g-1" value="" style="shape=stencil(rZPhDoIgFIWfhr8NYc3+Nqv3QKVkEjggrbfvKupKw5Vrc2z3HM6H3iuIJrZgFUcEF4geECERxrBC3UxqZiueOS/WzAiWSu4d64wueSNy1zOEKrgRrnXpEeE97GkfmmRaKYAIreyb8+IDjAkFWXz3sP74R19tyNYLiJxWM+IVjGjCWPMaQ2iE7AIUmoAS6hZNUpaVF6NvKp+ngt5ZG/7BGG0hpZ/kwldVrJ3xzBjsq655sOtL/RoAUqggYPwTf0GMoR4S/4FBv2JkUtulVoIe6CbcydAcuthskJ3q73EnPAE=);whiteSpace=wrap;html=1;flipV=1;fontSize=8;" vertex="1" parent="1">
          <mxGeometry x="265" y="240" width="55" height="110" as="geometry" />
        </mxCell>
        <mxCell id="pL2ed25bZTicXIQe8n6g-2" value="" style="endArrow=none;html=1;rounded=0;entryX=-0.005;entryY=0.826;entryDx=0;entryDy=0;entryPerimeter=0;" edge="1" parent="1">
          <mxGeometry width="50" height="50" relative="1" as="geometry">
            <mxPoint x="240" y="260" as="sourcePoint" />
            <mxPoint x="264.72499999999997" y="260.14" as="targetPoint" />
          </mxGeometry>
        </mxCell>
        <mxCell id="pL2ed25bZTicXIQe8n6g-3" value="" style="endArrow=none;html=1;rounded=0;" edge="1" parent="1">
          <mxGeometry width="50" height="50" relative="1" as="geometry">
            <mxPoint x="240" y="310" as="sourcePoint" />
            <mxPoint x="265" y="310" as="targetPoint" />
          </mxGeometry>
        </mxCell>
        <mxCell id="pL2ed25bZTicXIQe8n6g-4" value="x" style="edgeLabel;html=1;align=center;verticalAlign=middle;resizable=0;points=[];" vertex="1" connectable="0" parent="pL2ed25bZTicXIQe8n6g-3">
          <mxGeometry x="-0.6014" y="1" relative="1" as="geometry">
            <mxPoint x="-5" y="-6" as="offset" />
          </mxGeometry>
        </mxCell>
        <mxCell id="pL2ed25bZTicXIQe8n6g-5" value="" style="endArrow=none;html=1;rounded=0;entryX=0.003;entryY=0.64;entryDx=0;entryDy=0;entryPerimeter=0;" edge="1" target="pL2ed25bZTicXIQe8n6g-1" parent="1">
          <mxGeometry width="50" height="50" relative="1" as="geometry">
            <mxPoint x="190" y="280" as="sourcePoint" />
            <mxPoint x="200" y="300" as="targetPoint" />
          </mxGeometry>
        </mxCell>
        <mxCell id="pL2ed25bZTicXIQe8n6g-6" value="i_add" style="edgeLabel;html=1;align=center;verticalAlign=middle;resizable=0;points=[];" vertex="1" connectable="0" parent="pL2ed25bZTicXIQe8n6g-5">
          <mxGeometry x="-0.4812" relative="1" as="geometry">
            <mxPoint x="-19" y="-10" as="offset" />
          </mxGeometry>
        </mxCell>
        <mxCell id="pL2ed25bZTicXIQe8n6g-7" value="" style="endArrow=none;html=1;rounded=0;" edge="1" parent="1">
          <mxGeometry width="50" height="50" relative="1" as="geometry">
            <mxPoint x="240" y="330" as="sourcePoint" />
            <mxPoint x="265" y="330" as="targetPoint" />
          </mxGeometry>
        </mxCell>
        <mxCell id="pL2ed25bZTicXIQe8n6g-8" value="" style="endArrow=none;html=1;rounded=0;" edge="1" target="pL2ed25bZTicXIQe8n6g-10" parent="1">
          <mxGeometry width="50" height="50" relative="1" as="geometry">
            <mxPoint x="320" y="300" as="sourcePoint" />
            <mxPoint x="370" y="300" as="targetPoint" />
          </mxGeometry>
        </mxCell>
        <mxCell id="pL2ed25bZTicXIQe8n6g-9" value="" style="edgeStyle=orthogonalEdgeStyle;rounded=0;orthogonalLoop=1;jettySize=auto;html=1;" edge="1" source="pL2ed25bZTicXIQe8n6g-10" parent="1">
          <mxGeometry relative="1" as="geometry">
            <mxPoint x="570" y="300" as="targetPoint" />
          </mxGeometry>
        </mxCell>
        <mxCell id="pL2ed25bZTicXIQe8n6g-10" value="reg 5" style="rounded=0;whiteSpace=wrap;html=1;" vertex="1" parent="1">
          <mxGeometry x="370" y="270" width="120" height="60" as="geometry" />
        </mxCell>
        <mxCell id="pL2ed25bZTicXIQe8n6g-11" value="" style="endArrow=none;html=1;rounded=0;exitX=0.5;exitY=0;exitDx=0;exitDy=0;" edge="1" source="pL2ed25bZTicXIQe8n6g-10" parent="1">
          <mxGeometry width="50" height="50" relative="1" as="geometry">
            <mxPoint x="410" y="250" as="sourcePoint" />
            <mxPoint x="430" y="190" as="targetPoint" />
          </mxGeometry>
        </mxCell>
        <mxCell id="pL2ed25bZTicXIQe8n6g-12" value="+" style="shape=stencil(rZTvDoIgFMWfhq8OIZt9bFbvQUrJInBg/96+q5RTzFbU5tzuOd6fXDmCaGZLVnFEcInoChESYwx3qC9ezWzF89qJZ2YE20ruHFsbfeAXUdQPhlAlN6JuXLpGeAnPNBfNcq0UQIRWduD0fIAxoaAXXx0MR8S95vaoXYXI5gtE+jsiGSDiEAT2lhHNQiix9z2ieQhl4UGS1xCagTK1bTTbsvywN/qkinHXpLfThr8wOltI6SL1ZqiKNWEbGU/7qM+8N+3nu/8ESKF6AI/Q/RPfMNI/MLqm8FHmPxOSIYEGIGYBi8iltu8SAfpEKOCMm4pT2zbKY6u6c7EV7g==);whiteSpace=wrap;html=1;rotation=-90;" vertex="1" parent="1">
          <mxGeometry x="440" y="130" width="100" height="60" as="geometry" />
        </mxCell>
        <mxCell id="pL2ed25bZTicXIQe8n6g-13" value="" style="endArrow=none;html=1;rounded=0;exitX=0.2;exitY=0;exitDx=0;exitDy=0;exitPerimeter=0;" edge="1" source="pL2ed25bZTicXIQe8n6g-12" parent="1">
          <mxGeometry width="50" height="50" relative="1" as="geometry">
            <mxPoint x="420" y="-20" as="sourcePoint" />
            <mxPoint x="430" y="190" as="targetPoint" />
          </mxGeometry>
        </mxCell>
        <mxCell id="pL2ed25bZTicXIQe8n6g-14" value="" style="endArrow=none;html=1;rounded=0;exitX=0.8;exitY=0;exitDx=0;exitDy=0;exitPerimeter=0;" edge="1" source="pL2ed25bZTicXIQe8n6g-12" parent="1">
          <mxGeometry width="50" height="50" relative="1" as="geometry">
            <mxPoint x="470" y="60" as="sourcePoint" />
            <mxPoint x="430" y="130" as="targetPoint" />
          </mxGeometry>
        </mxCell>
        <mxCell id="pL2ed25bZTicXIQe8n6g-15" value="2" style="edgeLabel;html=1;align=center;verticalAlign=middle;resizable=0;points=[];" vertex="1" connectable="0" parent="pL2ed25bZTicXIQe8n6g-14">
          <mxGeometry x="0.5467" y="1" relative="1" as="geometry">
            <mxPoint x="-7" y="-11" as="offset" />
          </mxGeometry>
        </mxCell>
        <mxCell id="pL2ed25bZTicXIQe8n6g-16" value="" style="endArrow=none;html=1;rounded=0;entryX=0.5;entryY=1;entryDx=0;entryDy=0;entryPerimeter=0;" edge="1" target="pL2ed25bZTicXIQe8n6g-12" parent="1">
          <mxGeometry width="50" height="50" relative="1" as="geometry">
            <mxPoint x="590" y="160" as="sourcePoint" />
            <mxPoint x="520" y="19.569999999999993" as="targetPoint" />
            <Array as="points" />
          </mxGeometry>
        </mxCell>
        <mxCell id="pL2ed25bZTicXIQe8n6g-17" value="" style="endArrow=none;html=1;rounded=0;" edge="1" parent="1">
          <mxGeometry width="50" height="50" relative="1" as="geometry">
            <mxPoint x="590" y="160" as="sourcePoint" />
            <mxPoint x="590" y="60" as="targetPoint" />
            <Array as="points" />
          </mxGeometry>
        </mxCell>
        <mxCell id="pL2ed25bZTicXIQe8n6g-18" value="" style="endArrow=none;html=1;rounded=0;" edge="1" parent="1">
          <mxGeometry width="50" height="50" relative="1" as="geometry">
            <mxPoint x="240" y="260" as="sourcePoint" />
            <mxPoint x="240" y="60" as="targetPoint" />
            <Array as="points" />
          </mxGeometry>
        </mxCell>
        <mxCell id="pL2ed25bZTicXIQe8n6g-19" value="" style="endArrow=none;html=1;rounded=0;" edge="1" parent="1">
          <mxGeometry width="50" height="50" relative="1" as="geometry">
            <mxPoint x="240" y="60" as="sourcePoint" />
            <mxPoint x="590" y="60" as="targetPoint" />
            <Array as="points" />
          </mxGeometry>
        </mxCell>
        <mxCell id="pL2ed25bZTicXIQe8n6g-20" value="&lt;font&gt;00&lt;/font&gt;" style="text;html=1;align=center;verticalAlign=middle;resizable=0;points=[];autosize=1;strokeColor=none;fillColor=none;fontSize=12;" vertex="1" parent="1">
          <mxGeometry x="253" y="243" width="40" height="30" as="geometry" />
        </mxCell>
        <mxCell id="pL2ed25bZTicXIQe8n6g-21" value="&lt;font&gt;01&lt;/font&gt;" style="text;html=1;align=center;verticalAlign=middle;resizable=0;points=[];autosize=1;strokeColor=none;fillColor=none;fontSize=12;" vertex="1" parent="1">
          <mxGeometry x="253" y="265" width="40" height="30" as="geometry" />
        </mxCell>
        <mxCell id="pL2ed25bZTicXIQe8n6g-22" value="&lt;font&gt;10&lt;/font&gt;" style="text;html=1;align=center;verticalAlign=middle;resizable=0;points=[];autosize=1;strokeColor=none;fillColor=none;fontSize=12;" vertex="1" parent="1">
          <mxGeometry x="252" y="295" width="40" height="30" as="geometry" />
        </mxCell>
        <mxCell id="pL2ed25bZTicXIQe8n6g-23" value="&lt;font&gt;11&lt;/font&gt;" style="text;html=1;align=center;verticalAlign=middle;resizable=0;points=[];autosize=1;strokeColor=none;fillColor=none;fontSize=12;" vertex="1" parent="1">
          <mxGeometry x="252" y="315" width="40" height="30" as="geometry" />
        </mxCell>
        <mxCell id="pL2ed25bZTicXIQe8n6g-24" value="" style="endArrow=none;html=1;rounded=0;exitX=0.2;exitY=0;exitDx=0;exitDy=0;exitPerimeter=0;" edge="1" source="pL2ed25bZTicXIQe8n6g-27" parent="1">
          <mxGeometry width="50" height="50" relative="1" as="geometry">
            <mxPoint x="420" y="252" as="sourcePoint" />
            <mxPoint x="430" y="462" as="targetPoint" />
          </mxGeometry>
        </mxCell>
        <mxCell id="pL2ed25bZTicXIQe8n6g-25" value="1" style="edgeLabel;html=1;align=center;verticalAlign=middle;resizable=0;points=[];" vertex="1" connectable="0" parent="pL2ed25bZTicXIQe8n6g-24">
          <mxGeometry x="0.2737" y="-1" relative="1" as="geometry">
            <mxPoint x="-11" y="-9" as="offset" />
          </mxGeometry>
        </mxCell>
        <mxCell id="pL2ed25bZTicXIQe8n6g-26" value="" style="endArrow=none;html=1;rounded=0;exitX=0.8;exitY=0;exitDx=0;exitDy=0;exitPerimeter=0;" edge="1" parent="1">
          <mxGeometry width="50" height="50" relative="1" as="geometry">
            <mxPoint x="460" y="400" as="sourcePoint" />
            <mxPoint x="430" y="400" as="targetPoint" />
          </mxGeometry>
        </mxCell>
        <mxCell id="pL2ed25bZTicXIQe8n6g-27" value="I" style="shape=stencil(rZTvDoIgFMWfhq8OIZt9bFbvQUrJInBg/96+q5RTzFbU5tzuOd6fXDmCaGZLVnFEcInoChESYwx3qC9ezWzF89qJZ2YE20ruHFsbfeAXUdQPhlAlN6JuXLpGeAnPNBfNcq0UQIRWduD0fIAxoaAXXx0MR8S95vaoXYXI5gtE+jsiGSDiEAT2lhHNQiix9z2ieQhl4UGS1xCagTK1bTTbsvywN/qkinHXpLfThr8wOltI6SL1ZqiKNWEbGU/7qM+8N+3nu/8ESKF6AI/Q/RPfMNI/MLqm8FHmPxOSIYEGIGYBi8iltu8SAfpEKOCMm4pT2zbKY6u6c7EV7g==);whiteSpace=wrap;html=1;rotation=-90;" vertex="1" parent="1">
          <mxGeometry x="440" y="402" width="100" height="60" as="geometry" />
        </mxCell>
        <mxCell id="pL2ed25bZTicXIQe8n6g-28" value="" style="endArrow=none;html=1;rounded=0;" edge="1" parent="1">
          <mxGeometry width="50" height="50" relative="1" as="geometry">
            <mxPoint x="240" y="532" as="sourcePoint" />
            <mxPoint x="590" y="532" as="targetPoint" />
            <Array as="points" />
          </mxGeometry>
        </mxCell>
        <mxCell id="pL2ed25bZTicXIQe8n6g-29" value="" style="endArrow=none;html=1;rounded=0;" edge="1" parent="1">
          <mxGeometry width="50" height="50" relative="1" as="geometry">
            <mxPoint x="590" y="532" as="sourcePoint" />
            <mxPoint x="590" y="432" as="targetPoint" />
            <Array as="points" />
          </mxGeometry>
        </mxCell>
        <mxCell id="pL2ed25bZTicXIQe8n6g-30" value="" style="endArrow=none;html=1;rounded=0;entryX=0.5;entryY=1;entryDx=0;entryDy=0;entryPerimeter=0;" edge="1" target="pL2ed25bZTicXIQe8n6g-27" parent="1">
          <mxGeometry width="50" height="50" relative="1" as="geometry">
            <mxPoint x="590" y="432" as="sourcePoint" />
            <mxPoint x="520" y="291.56999999999994" as="targetPoint" />
            <Array as="points" />
          </mxGeometry>
        </mxCell>
        <mxCell id="pL2ed25bZTicXIQe8n6g-31" value="" style="endArrow=none;html=1;rounded=0;" edge="1" parent="1">
          <mxGeometry width="50" height="50" relative="1" as="geometry">
            <mxPoint x="240" y="532" as="sourcePoint" />
            <mxPoint x="240" y="330" as="targetPoint" />
            <Array as="points" />
          </mxGeometry>
        </mxCell>
        <mxCell id="pL2ed25bZTicXIQe8n6g-32" value="" style="endArrow=none;html=1;rounded=0;entryX=0.5;entryY=1;entryDx=0;entryDy=0;" edge="1" parent="1">
          <mxGeometry width="50" height="50" relative="1" as="geometry">
            <mxPoint x="430" y="400" as="sourcePoint" />
            <mxPoint x="430" y="330" as="targetPoint" />
            <Array as="points" />
          </mxGeometry>
        </mxCell>
        <mxCell id="pL2ed25bZTicXIQe8n6g-33" value="o_mem_addr" style="text;html=1;align=center;verticalAlign=middle;resizable=0;points=[];autosize=1;strokeColor=none;fillColor=none;" vertex="1" parent="1">
          <mxGeometry x="570" y="285" width="90" height="30" as="geometry" />
        </mxCell>
        <mxCell id="pL2ed25bZTicXIQe8n6g-34" value="" style="endArrow=classic;html=1;rounded=0;entryX=0.54;entryY=0.144;entryDx=0;entryDy=0;entryPerimeter=0;strokeColor=#FF0000;" edge="1" target="pL2ed25bZTicXIQe8n6g-1" parent="1">
          <mxGeometry width="50" height="50" relative="1" as="geometry">
            <mxPoint x="295" y="375" as="sourcePoint" />
            <mxPoint x="295" y="330" as="targetPoint" />
          </mxGeometry>
        </mxCell>
        <mxCell id="pL2ed25bZTicXIQe8n6g-35" value="add_sel" style="edgeLabel;html=1;align=center;verticalAlign=middle;resizable=0;points=[];fontColor=#FF0000;" vertex="1" connectable="0" parent="pL2ed25bZTicXIQe8n6g-34">
          <mxGeometry x="-0.2046" relative="1" as="geometry">
            <mxPoint x="25" y="8" as="offset" />
          </mxGeometry>
        </mxCell>
        <mxCell id="pL2ed25bZTicXIQe8n6g-36" value="" style="endArrow=classic;html=1;rounded=0;entryX=0;entryY=0;entryDx=0;entryDy=0;strokeColor=#FF0000;" edge="1" target="pL2ed25bZTicXIQe8n6g-10" parent="1">
          <mxGeometry width="50" height="50" relative="1" as="geometry">
            <mxPoint x="350" y="241" as="sourcePoint" />
            <mxPoint x="350" y="200" as="targetPoint" />
          </mxGeometry>
        </mxCell>
        <mxCell id="pL2ed25bZTicXIQe8n6g-37" value="r5_load" style="edgeLabel;html=1;align=center;verticalAlign=middle;resizable=0;points=[];fontColor=#FF0000;" vertex="1" connectable="0" parent="pL2ed25bZTicXIQe8n6g-36">
          <mxGeometry x="-0.2046" relative="1" as="geometry">
            <mxPoint x="22" y="-2" as="offset" />
          </mxGeometry>
        </mxCell>
      </root>
    </mxGraphModel>
  </diagram>
</mxfile>
